<?xml version="1.0" encoding="UTF-8" standalone="no"?>
<svg width="59px" height="53px" viewBox="0 0 59 53" version="1.1" xmlns="http://www.w3.org/2000/svg" xmlns:xlink="http://www.w3.org/1999/xlink">
    <!-- Generator: Sketch 50 (54983) - http://www.bohemiancoding.com/sketch -->
    <title>Artboard 6</title>
    <desc>Created with Sketch.</desc>
    <defs></defs>
    <g id="Artboard-6" stroke="none" stroke-width="1" fill="none" fill-rule="evenodd">
        <g id="edit-icon" transform="translate(5.000000, 4.000000)">
            <ellipse id="Oval-4-Copy" fill="#FEFEFE" cx="25" cy="23" rx="25" ry="23"></ellipse>
            <path d="M34.9147547,17.8636691 C35.7789057,17.0111082 36.6759811,16.1769258 37.5114057,15.2853514 C38.1413113,14.6131454 38.1269717,13.6562352 37.5080094,13.005698 C36.7137642,12.1709517 35.8989057,11.3529387 35.0534811,10.5699909 C34.2129151,9.79146147 32.9468302,9.82210816 32.0974906,10.5907197 C31.8302264,10.832603 31.5807453,11.094087 31.3248019,11.3483323 C30.8301792,11.8396195 30.3367358,12.3320818 29.8566415,12.8103019 C31.5529151,14.5049418 33.237066,16.1875488 34.9147547,17.8636691 M20.7338113,31.9387275 C24.9933868,27.6988607 29.2731981,23.4388762 33.518434,19.2133458 C31.8557925,17.5492115 30.1773491,15.8692368 28.5060755,14.1964067 C24.2467358,18.4462383 19.9768774,22.7065519 15.7081509,26.9657843 C17.3798962,28.6199537 19.0687642,30.2911386 20.7338113,31.9387275" id="Fill-1" fill="#FDB051"></path>
            <path d="M13,33.9769959 C13.1267453,33.4486224 13.2593868,32.9215651 13.3789623,32.3915935 C13.6691981,31.1053724 13.9531132,29.8178352 14.2405189,28.5310501 C14.2535377,28.472718 14.2758491,28.416454 14.2878302,28.3784747 C15.9588679,30.0458993 17.6322642,31.7157211 19.314434,33.3942856 C18.7937736,33.5210088 18.2515566,33.6537955 17.7088679,33.784843 C16.408066,34.0989246 15.1070283,34.4119721 13.8064151,34.7268058 C13.7715094,34.7352665 13.7404245,34.7593326 13.7075472,34.7760661 L13.4245283,34.7760661 C13.2830189,34.6350537 13.1415094,34.4940413 13,34.3530289 L13,33.9769959 Z" id="Fill-3" fill="#FDB051"></path>
            <polygon id="Fill-5" fill="#FDB051" points="13 34.3530289 13.5952381 34.943938 13 34.943938"></polygon>
            <path d="M20.7338208,31.9387416 C19.0687736,30.2911057 17.3798585,28.6199678 15.7081604,26.9657514 C19.9768868,22.706566 24.2467453,18.4462054 28.5060377,14.1964208 C30.1773585,15.8692509 31.8558019,17.5491786 33.5184434,19.2133599 C29.2732075,23.4388903 24.9933962,27.6988748 20.7338208,31.9387416" id="Fill-7" fill="#FDB051"></path>
            <path d="M34.9147547,17.8636691 C33.237066,16.1875488 31.5529151,14.5049418 29.8566415,12.8103019 C30.3367358,12.3320818 30.8301792,11.8396195 31.3248019,11.3483323 C31.5807453,11.094087 31.8302264,10.832603 32.0974906,10.5907197 C32.9468302,9.82210816 34.2129151,9.79146147 35.0534811,10.5699909 C35.8989057,11.3529387 36.7137642,12.1709517 37.5080094,13.005698 C38.1269717,13.6562352 38.1413113,14.6131454 37.5114057,15.2853514 C36.6759811,16.1769258 35.7789057,17.0111082 34.9147547,17.8636691" id="Fill-9" fill="#FDB051"></path>
        </g>
    </g>
</svg>