<?xml version="1.0" encoding="UTF-8" standalone="no"?>
<!-- Created with Inkscape (http://www.inkscape.org/) -->

<svg
   xmlns:dc="http://purl.org/dc/elements/1.1/"
   xmlns:cc="http://creativecommons.org/ns#"
   xmlns:rdf="http://www.w3.org/1999/02/22-rdf-syntax-ns#"
   xmlns:svg="http://www.w3.org/2000/svg"
   xmlns="http://www.w3.org/2000/svg"
   xmlns:sodipodi="http://sodipodi.sourceforge.net/DTD/sodipodi-0.dtd"
   xmlns:inkscape="http://www.inkscape.org/namespaces/inkscape"
   width="37.041668mm"
   height="10.583333mm"
   viewBox="0 0 37.041668 10.583333"
   version="1.1"
   id="svg8"
   inkscape:version="0.92.3 (2405546, 2018-03-11)"
   sodipodi:docname="drawing2.svg">
  <defs
     id="defs2" />
  <sodipodi:namedview
     id="base"
     pagecolor="#ffffff"
     bordercolor="#666666"
     borderopacity="1.0"
     inkscape:pageopacity="0.0"
     inkscape:pageshadow="2"
     inkscape:zoom="8"
     inkscape:cx="76.163961"
     inkscape:cy="19.527063"
     inkscape:document-units="mm"
     inkscape:current-layer="layer1"
     showgrid="false"
     inkscape:window-width="1920"
     inkscape:window-height="1057"
     inkscape:window-x="-8"
     inkscape:window-y="-8"
     inkscape:window-maximized="1"
     fit-margin-top="0"
     fit-margin-left="0"
     fit-margin-right="0"
     fit-margin-bottom="0" />
  <metadata
     id="metadata5">
    <rdf:RDF>
      <cc:Work
         rdf:about="">
        <dc:format>image/svg+xml</dc:format>
        <dc:type
           rdf:resource="http://purl.org/dc/dcmitype/StillImage" />
        <dc:title></dc:title>
      </cc:Work>
    </rdf:RDF>
  </metadata>
  <g
     inkscape:label="Layer 1"
     inkscape:groupmode="layer"
     id="layer1"
     transform="translate(-13.092062,-14.947094)">
    <path
       style="fill:#42569b;fill-opacity:1;stroke-width:0.26458332"
       d="m 13.092062,20.238758 8.4e-5,-4.834447 c 0,-0.241667 0.260293,-0.45205 0.496895,-0.452117 l 18.023855,-0.0051 h 18.086752 c 0.227434,0 0.434082,0.191571 0.434082,0.437021 v 4.854645 l -0.0041,4.849009 c 0,0.235275 -0.20668,0.442658 -0.434204,0.442658 H 31.612896 13.497885 c -0.19957,0 -0.405823,-0.197184 -0.405823,-0.434082 z"
       id="path3743"
       inkscape:connector-curvature="0"
       sodipodi:nodetypes="ccscccccccccc" />
    <g
       aria-label="Connect Facebook"
       style="font-style:normal;font-variant:normal;font-weight:normal;font-stretch:normal;font-size:4.02166653px;line-height:1.25;font-family:Roboto;-inkscape-font-specification:Roboto;letter-spacing:0px;word-spacing:0px;fill:#ffffff;fill-opacity:1;stroke:none;stroke-width:0.26458332"
       id="text4552">
      <path
         d="m 17.251659,20.628447 q -0.05302,0.453616 -0.335793,0.701043 -0.28081,0.245463 -0.748172,0.245463 -0.506635,0 -0.812973,-0.363285 -0.304375,-0.363286 -0.304375,-0.972034 v -0.274919 q 0,-0.398632 0.141387,-0.701042 0.143351,-0.302411 0.404523,-0.463434 0.261173,-0.162988 0.604821,-0.162988 0.45558,0 0.730498,0.255282 0.274919,0.253318 0.320084,0.703006 h -0.378995 q -0.04909,-0.341685 -0.214044,-0.494854 -0.162987,-0.153168 -0.457543,-0.153168 -0.361321,0 -0.56751,0.267063 -0.204226,0.267064 -0.204226,0.759954 v 0.276882 q 0,0.465398 0.194407,0.740317 0.194407,0.274918 0.543946,0.274918 0.314193,0 0.481108,-0.141386 0.168878,-0.143351 0.223862,-0.496818 z"
         style="font-size:4.02166653px;fill:#ffffff;stroke-width:0.26458332"
         id="path4554"
         inkscape:connector-curvature="0" />
      <path
         d="m 17.611017,20.453678 q 0,-0.312229 0.12175,-0.56162 0.123713,-0.24939 0.341684,-0.384886 0.219935,-0.135495 0.500745,-0.135495 0.433978,0 0.701042,0.300446 0.269028,0.300447 0.269028,0.799228 v 0.02553 q 0,0.310266 -0.119786,0.557692 -0.117822,0.245463 -0.339721,0.382923 -0.219935,0.137459 -0.506636,0.137459 -0.432015,0 -0.701042,-0.300447 -0.267064,-0.300447 -0.267064,-0.7953 z m 0.365249,0.0432 q 0,0.353467 0.162987,0.567511 0.164952,0.214044 0.43987,0.214044 0.276883,0 0.43987,-0.216008 0.162987,-0.217971 0.162987,-0.608748 0,-0.34954 -0.166914,-0.565547 -0.164952,-0.217971 -0.43987,-0.217971 -0.269028,0 -0.433979,0.214043 -0.164951,0.214044 -0.164951,0.612676 z"
         style="font-size:4.02166653px;fill:#ffffff;stroke-width:0.26458332"
         id="path4556"
         inkscape:connector-curvature="0" />
      <path
         d="m 20.344493,19.410951 0.01178,0.267064 q 0.2435,-0.306338 0.636241,-0.306338 0.67355,0 0.679441,0.759953 v 1.404049 H 21.30867 v -1.406012 q -0.002,-0.229754 -0.10604,-0.339721 -0.102113,-0.109968 -0.320084,-0.109968 -0.176733,0 -0.310265,0.09426 -0.133532,0.09426 -0.208153,0.247427 v 1.514016 h -0.363285 v -2.124728 z"
         style="font-size:4.02166653px;fill:#ffffff;stroke-width:0.26458332"
         id="path4558"
         inkscape:connector-curvature="0" />
      <path
         d="m 22.567407,19.410951 0.01178,0.267064 q 0.2435,-0.306338 0.63624,-0.306338 0.673551,0 0.679442,0.759953 v 1.404049 h -0.363285 v -1.406012 q -0.002,-0.229754 -0.10604,-0.339721 -0.102113,-0.109968 -0.320084,-0.109968 -0.176733,0 -0.310265,0.09426 -0.133532,0.09426 -0.208153,0.247427 v 1.514016 h -0.363285 v -2.124728 z"
         style="font-size:4.02166653px;fill:#ffffff;stroke-width:0.26458332"
         id="path4560"
         inkscape:connector-curvature="0" />
      <path
         d="m 25.328375,21.574953 q -0.432015,0 -0.703006,-0.282773 -0.270992,-0.284738 -0.270992,-0.759954 v -0.06677 q 0,-0.316156 0.119786,-0.563583 0.12175,-0.249391 0.337758,-0.388814 0.217971,-0.141386 0.471289,-0.141386 0.414341,0 0.644095,0.272955 0.229753,0.272954 0.229753,0.781554 v 0.151205 h -1.439395 q 0.0079,0.314193 0.182624,0.5086 0.176734,0.192443 0.447725,0.192443 0.192443,0 0.325975,-0.07855 0.133532,-0.07855 0.233681,-0.208152 l 0.221898,0.172806 q -0.267064,0.410414 -0.801191,0.410414 z M 25.28321,19.67016 q -0.219935,0 -0.369177,0.161023 -0.149241,0.159061 -0.184588,0.447725 h 1.064328 v -0.02749 Q 25.778063,19.974534 25.644531,19.823329 25.510999,19.67016 25.28321,19.67016 Z"
         style="font-size:4.02166653px;fill:#ffffff;stroke-width:0.26458332"
         id="path4562"
         inkscape:connector-curvature="0" />
      <path
         d="m 27.427575,21.278434 q 0.194406,0 0.339721,-0.117823 0.145314,-0.117822 0.161023,-0.294555 h 0.343649 q -0.0098,0.182624 -0.125678,0.347575 -0.115858,0.164952 -0.310265,0.263137 -0.192443,0.09819 -0.40845,0.09819 -0.433979,0 -0.691224,-0.288665 -0.255282,-0.290628 -0.255282,-0.793336 v -0.06087 q 0,-0.310265 0.113895,-0.551801 0.113895,-0.241536 0.325975,-0.375067 0.214044,-0.133532 0.504672,-0.133532 0.357394,0 0.593039,0.214043 0.237608,0.214044 0.253318,0.555729 H 27.928319 Q 27.91261,19.93526 27.771223,19.803692 27.6318,19.67016 27.425611,19.67016 q -0.276882,0 -0.430051,0.200298 -0.151206,0.198334 -0.151206,0.575365 v 0.06873 q 0,0.367212 0.151206,0.565546 0.151205,0.198335 0.432015,0.198335 z"
         style="font-size:4.02166653px;fill:#ffffff;stroke-width:0.26458332"
         id="path4564"
         inkscape:connector-curvature="0" />
      <path
         d="m 29.173308,18.89646 v 0.514491 h 0.396668 v 0.280809 h -0.396668 v 1.317646 q 0,0.127641 0.05302,0.192443 0.05302,0.06284 0.180661,0.06284 0.06284,0 0.172806,-0.02356 v 0.294556 q -0.143351,0.03927 -0.278846,0.03927 -0.2435,0 -0.367213,-0.147278 -0.123713,-0.147278 -0.123713,-0.418269 V 19.69176 h -0.38685 v -0.280809 h 0.38685 V 18.89646 Z"
         style="font-size:4.02166653px;fill:#ffffff;stroke-width:0.26458332"
         id="path4566"
         inkscape:connector-curvature="0" />
      <path
         d="m 32.623537,20.273017 h -1.199824 v 1.262662 h -0.377031 v -2.859154 h 1.771261 v 0.310266 h -1.39423 v 0.977924 h 1.199824 z"
         style="font-size:4.02166653px;fill:#ffffff;stroke-width:0.26458332"
         id="path4568"
         inkscape:connector-curvature="0" />
      <path
         d="m 34.461564,21.535679 q -0.03142,-0.06284 -0.05106,-0.223862 -0.253318,0.263136 -0.604821,0.263136 -0.314193,0 -0.516454,-0.176733 -0.200298,-0.178698 -0.200298,-0.451652 0,-0.331866 0.251354,-0.514491 0.253318,-0.184588 0.710861,-0.184588 h 0.353467 v -0.166915 q 0,-0.190479 -0.113895,-0.302411 -0.113895,-0.113894 -0.335793,-0.113894 -0.194407,0 -0.325975,0.09819 -0.131568,0.09818 -0.131568,0.237608 h -0.365249 q 0,-0.15906 0.111931,-0.306338 0.113895,-0.149241 0.306338,-0.235644 0.194406,-0.0864 0.426123,-0.0864 0.367213,0 0.575366,0.184588 0.208152,0.182624 0.216007,0.504672 v 0.977925 q 0,0.292592 0.07462,0.465398 v 0.03142 z m -0.602857,-0.276882 q 0.170842,0 0.324011,-0.08837 0.153169,-0.08837 0.221899,-0.229754 V 20.504734 H 34.11988 q -0.66766,0 -0.66766,0.390777 0,0.170843 0.113895,0.267064 0.113895,0.09622 0.292592,0.09622 z"
         style="font-size:4.02166653px;fill:#ffffff;stroke-width:0.26458332"
         id="path4570"
         inkscape:connector-curvature="0" />
      <path
         d="m 36.193552,21.278434 q 0.194406,0 0.33972,-0.117823 0.145315,-0.117822 0.161024,-0.294555 h 0.343648 q -0.0098,0.182624 -0.125677,0.347575 -0.115858,0.164952 -0.310265,0.263137 -0.192443,0.09819 -0.40845,0.09819 -0.433979,0 -0.691224,-0.288665 -0.255282,-0.290628 -0.255282,-0.793336 v -0.06087 q 0,-0.310265 0.113895,-0.551801 0.113895,-0.241536 0.325975,-0.375067 0.214044,-0.133532 0.504672,-0.133532 0.357394,0 0.593039,0.214043 0.237608,0.214044 0.253317,0.555729 H 36.694296 Q 36.678587,19.93526 36.5372,19.803692 36.397777,19.67016 36.191588,19.67016 q -0.276882,0 -0.430051,0.200298 -0.151206,0.198334 -0.151206,0.575365 v 0.06873 q 0,0.367212 0.151206,0.565546 0.151205,0.198335 0.432015,0.198335 z"
         style="font-size:4.02166653px;fill:#ffffff;stroke-width:0.26458332"
         id="path4572"
         inkscape:connector-curvature="0" />
      <path
         d="m 38.328098,21.574953 q -0.432015,0 -0.703006,-0.282773 -0.270991,-0.284738 -0.270991,-0.759954 v -0.06677 q 0,-0.316156 0.119786,-0.563583 0.12175,-0.249391 0.337757,-0.388814 0.217971,-0.141386 0.471289,-0.141386 0.414342,0 0.644095,0.272955 0.229753,0.272954 0.229753,0.781554 v 0.151205 h -1.439395 q 0.0079,0.314193 0.182625,0.5086 0.176733,0.192443 0.447724,0.192443 0.192443,0 0.325975,-0.07855 0.133532,-0.07855 0.233681,-0.208152 l 0.221899,0.172806 q -0.267064,0.410414 -0.801192,0.410414 z m -0.04516,-1.904793 q -0.219935,0 -0.369176,0.161023 -0.149242,0.159061 -0.184589,0.447725 h 1.064328 v -0.02749 Q 38.777787,19.974534 38.644255,19.823329 38.510723,19.67016 38.282933,19.67016 Z"
         style="font-size:4.02166653px;fill:#ffffff;stroke-width:0.26458332"
         id="path4574"
         inkscape:connector-curvature="0" />
      <path
         d="m 41.373803,20.496879 q 0,0.486999 -0.223863,0.783518 -0.223862,0.294556 -0.600893,0.294556 -0.40256,0 -0.622494,-0.284737 l -0.01767,0.245463 h -0.33383 v -3.01625 h 0.363286 v 1.125203 q 0.219935,-0.272955 0.606784,-0.272955 0.38685,0 0.606785,0.292592 0.221899,0.292592 0.221899,0.801191 z m -0.363286,-0.04124 q 0,-0.37114 -0.14335,-0.573401 -0.14335,-0.202262 -0.412378,-0.202262 -0.359358,0 -0.516454,0.33383 v 0.919014 q 0.166915,0.333829 0.520381,0.333829 0.261173,0 0.406487,-0.202261 0.145314,-0.202262 0.145314,-0.608749 z"
         style="font-size:4.02166653px;fill:#ffffff;stroke-width:0.26458332"
         id="path4576"
         inkscape:connector-curvature="0" />
      <path
         d="m 41.733161,20.453678 q 0,-0.312229 0.12175,-0.56162 0.123713,-0.24939 0.341685,-0.384886 0.219935,-0.135495 0.500744,-0.135495 0.433979,0 0.701043,0.300446 0.269027,0.300447 0.269027,0.799228 v 0.02553 q 0,0.310266 -0.119786,0.557692 -0.117822,0.245463 -0.339721,0.382923 -0.219934,0.137459 -0.506635,0.137459 -0.432015,0 -0.701043,-0.300447 -0.267064,-0.300447 -0.267064,-0.7953 z m 0.365249,0.0432 q 0,0.353467 0.162988,0.567511 0.164951,0.214044 0.43987,0.214044 0.276882,0 0.439869,-0.216008 0.162988,-0.217971 0.162988,-0.608748 0,-0.34954 -0.166915,-0.565547 -0.164951,-0.217971 -0.43987,-0.217971 -0.269027,0 -0.433978,0.214043 -0.164952,0.214044 -0.164952,0.612676 z"
         style="font-size:4.02166653px;fill:#ffffff;stroke-width:0.26458332"
         id="path4578"
         inkscape:connector-curvature="0" />
      <path
         d="m 44.026767,20.453678 q 0,-0.312229 0.12175,-0.56162 0.123713,-0.24939 0.341684,-0.384886 0.219935,-0.135495 0.500745,-0.135495 0.433979,0 0.701043,0.300446 0.269027,0.300447 0.269027,0.799228 v 0.02553 q 0,0.310266 -0.119786,0.557692 -0.117822,0.245463 -0.339721,0.382923 -0.219935,0.137459 -0.506636,0.137459 -0.432014,0 -0.701042,-0.300447 -0.267064,-0.300447 -0.267064,-0.7953 z m 0.365249,0.0432 q 0,0.353467 0.162988,0.567511 0.164951,0.214044 0.439869,0.214044 0.276883,0 0.43987,-0.216008 0.162988,-0.217971 0.162988,-0.608748 0,-0.34954 -0.166915,-0.565547 -0.164951,-0.217971 -0.43987,-0.217971 -0.269027,0 -0.433979,0.214043 -0.164951,0.214044 -0.164951,0.612676 z"
         style="font-size:4.02166653px;fill:#ffffff;stroke-width:0.26458332"
         id="path4580"
         inkscape:connector-curvature="0" />
      <path
         d="m 47.009635,20.551863 -0.22779,0.237608 v 0.746208 H 46.41856 v -3.01625 h 0.363285 v 1.824281 l 0.194407,-0.233681 0.661769,-0.699078 h 0.441833 l -0.826719,0.887594 0.922941,1.237134 h -0.426124 z"
         style="font-size:4.02166653px;fill:#ffffff;stroke-width:0.26458332"
         id="path4582"
         inkscape:connector-curvature="0" />
    </g>
  </g>
</svg>
