<?xml version="1.0" encoding="UTF-8" standalone="no"?>
<svg width="295px" height="270px" viewBox="0 0 295 270" version="1.1" xmlns="http://www.w3.org/2000/svg" xmlns:xlink="http://www.w3.org/1999/xlink">
    <!-- Generator: Sketch 43.1 (39012) - http://www.bohemiancoding.com/sketch -->
    <title>Artboard 5 Copy 2</title>
    <desc>Created with Sketch.</desc>
    <defs>
        <polygon id="path-1" points="155.411533 155.283671 0.000303886989 155.283671 0.000303886989 0.67768396 155.411533 0.67768396 155.411533 155.283671"></polygon>
    </defs>
    <g id="Page-1" stroke="none" stroke-width="1" fill="none" fill-rule="evenodd">
        <g id="Artboard-5-Copy-2">
            <ellipse id="Oval-2-Copy-18" fill="#F9A84A" cx="147" cy="135.5" rx="125" ry="120.5"></ellipse>
            <g id="Page-1" transform="translate(78.000000, 67.000000)">
                <g id="Group-3" transform="translate(0.000000, 0.136620)">
                    <mask id="mask-2" fill="white">
                        <use xlink:href="#path-1"></use>
                    </mask>
                    <g id="Clip-2"></g>
                    <path d="M29.8721571,71.9814547 L29.8721571,72.0363773 C25.8770641,72.0363773 21.8664528,72.2440531 17.8886023,71.9814547 C13.2762269,71.6759481 11.986486,73.7818842 12.0002801,78.0469626 C12.0140741,82.0322793 13.4383066,83.6936861 17.469609,83.6370473 C24.8873432,83.5323512 32.3136987,83.5735431 39.7297086,83.7726373 C43.9179179,83.885915 45.9490874,82.5969517 46.007712,77.9971891 C46.0646123,73.593088 44.6196887,71.6896788 40.1452535,71.9436955 C36.7312336,72.1359244 33.2965226,71.9814547 29.8721571,71.9814547 M28.6444894,38.5181817 L28.6444894,38.4907204 C32.377496,38.4907204 36.1242967,38.2967752 39.841785,38.5439266 C44.1886256,38.83227 46.0542668,37.3819717 46.000815,32.7547478 C45.9525359,28.5257123 44.990403,26.371719 40.2366389,26.5433519 C33.067197,26.804234 25.8753399,26.7167012 18.7007252,26.5090253 C14.1418017,26.376868 11.938207,27.643519 11.945104,32.7753437 C11.9502767,38.3534141 15.0763465,38.6572044 19.1679977,38.5370613 C22.3233797,38.4426632 25.4856588,38.5181817 28.6444894,38.5181817 M24.4976621,56.8914872 C20.795692,56.8914872 17.0851007,57.0562548 13.3952003,56.8502953 C8.99663223,56.6031439 7.3534196,58.3932754 7.36721362,62.8042418 C7.38273189,67.2426694 9.16905748,68.8834803 13.4796887,68.7925148 C20.8784561,68.6346125 28.2858449,68.6191656 35.682888,68.7839332 C40.0969744,68.881764 41.6625957,67.0143976 41.726393,62.696113 C41.7919146,58.1684363 39.8917884,56.6254562 35.5983997,56.8554443 C31.9084993,57.0579712 28.197908,56.8983525 24.4976621,56.8914872 M20.1749611,53.6819514 C23.8769312,53.6819514 27.5840741,53.5738226 31.2808714,53.711129 C35.1845791,53.8553006 37.915795,53.1687689 37.8985525,48.3012589 C37.8830342,43.8027597 36.6174329,41.4376579 31.5602003,41.6470501 C24.4528316,41.9388261 17.3178748,41.8839035 10.2053332,41.657348 C5.55847276,41.5114601 3.52040631,43.0252625 3.62041296,47.9717237 C3.71352259,52.5732026 5.75676179,53.9222375 9.92428007,53.7179943 C13.3331272,53.5532267 16.7574927,53.685384 20.1749611,53.6819514 M59.6517219,4.01824572 L59.6517219,4.05943762 C53.6202867,4.05943762 47.5871272,3.9701885 41.5591405,4.08346624 C35.8001372,4.19331131 34.2327917,7.16942638 37.1829877,11.8790341 C40.005589,16.3895476 41.8539877,21.4218252 46.6784462,24.8476185 C51.2166787,28.070885 50.2510973,39.6509591 45.3490475,41.0755124 C39.6245292,42.7386355 40.162496,47.092963 41.398785,49.5850732 C44.7714229,56.3834537 43.4489213,64.2493911 47.6009213,70.8606917 C52.9064462,79.310181 48.5458116,86.7350217 38.8055093,86.8380015 C33.9241505,86.8912077 29.0324462,87.0302304 24.1614329,86.7882279 C20.0266754,86.5822684 17.9386056,88.1218158 16.9109512,92.2238429 C14.7573598,100.824369 12.4675525,109.364824 11.7795757,118.25541 C10.722609,131.90881 14.0659346,138.986952 26.5374528,144.245785 C50.6838847,154.423618 75.242413,154.435632 99.321599,143.996917 C111.725871,138.619658 115.60544,130.221658 113.615652,116.942418 C111.482752,102.707183 106.794509,89.2477279 101.123443,76.0646022 C99.7681804,72.9117052 97.9611638,71.0992615 94.5178316,70.1466987 C87.1656189,68.1076994 84.1085193,62.5691047 83.8671239,55.2953009 C83.7343565,51.2962536 83.5308947,47.2766103 83.7964296,43.2947262 C84.249908,36.4929131 80.9600342,33.9630436 74.5130542,34.2616849 C70.7869445,34.4350342 67.0332468,34.4659281 63.3157585,34.2050461 C56.1876987,33.7073106 53.45131,29.4679771 53.6340807,22.655866 C53.8168515,15.8712161 58.5016455,15.9638979 63.2881704,15.9724795 C67.5953532,15.9793449 71.9059844,16.0342674 76.2114429,15.9106917 C81.0427983,15.7733853 82.5929013,11.9408219 82.8549877,8.35712628 C83.1808714,3.92384761 79.2099179,4.0577213 76.0234993,4.03026003 C70.5662402,3.98563546 65.1089811,4.01824572 59.6517219,4.01824572 M84.6413133,16.3620863 C95.9937917,13.8150536 102.259725,19.7089285 107.425586,27.5559862 C112.982851,36.0003266 120.583356,39.3986586 130.873695,38.6983963 C138.522479,38.1817811 146.447144,37.4712208 155.411533,39.7865491 C133.418692,46.7256686 115.077818,41.6401848 101.916599,25.5959381 C98.4387817,21.3548883 94.6350807,18.8009903 88.7519312,19.0910499 C80.1530841,19.5166996 71.5163033,19.195746 62.8967651,19.2249236 C60.027609,19.2352216 56.9394728,18.8833741 56.8980907,23.2582976 C56.8618814,27.1183222 57.9981638,30.3553194 62.2018914,30.7929834 C67.0401439,31.2958678 71.9542635,31.0538654 76.8356223,31.1516962 C83.5102037,31.2838535 86.838011,34.7130796 86.9087053,41.3295291 C86.9156023,41.9010668 86.9621571,42.4743208 86.9500874,43.0458585 C86.4707452,65.2482948 86.9483631,65.8902019 108.853267,69.8137308 C99.5560973,74.8683207 107.587665,80.0276067 108.367028,85.162864 C109.265363,91.0721859 113.441503,90.2208866 117.541775,89.4124955 C128.804592,87.1932816 139.98637,84.474616 151.511273,83.870468 C152.290636,83.8275598 153.094137,84.2600748 153.923503,84.4831976 C153.913157,88.0411483 151.123317,86.736738 149.576662,87.023365 C139.134589,88.9559519 128.689067,90.9297306 118.179749,92.4332351 C113.039752,93.1695404 111.251702,94.5717815 113.129413,100.113809 C115.13127,106.019698 116.017536,112.340939 117.019327,118.540321 C119.057393,131.162207 113.948433,140.734175 102.647682,146.0342 C76.1545425,158.455276 49.2648249,158.314537 22.7923764,145.926071 C11.8295791,140.797679 6.5947485,131.673673 8.51039302,119.280059 C9.6001206,112.225945 10.7312302,105.17698 12.0830442,98.1709241 C13.0572468,93.1231995 15.271187,89.0383357 10.1794694,83.6833881 C6.61888804,79.9400739 8.02242957,72.3247206 4.9325691,66.5252438 C2.70138638,62.3391165 2.71000764,56.4847172 0.996100664,51.3649068 C-0.538484053,46.7840238 -1.28853389,40.8661202 6.38956246,38.1611852 C12.1606355,36.1273349 5.88780498,27.5113617 11.7933698,24.3893586 C14.752187,22.8223499 17.9799877,23.4161999 21.1060575,23.3715753 C26.7909179,23.2926242 32.4792269,23.349263 38.3554794,23.349263 C38.1813299,18.2895241 34.7983465,15.5210849 33.3672169,11.8858994 C31.0515458,6.00918775 33.599991,1.19145131 39.9176522,0.997506091 C52.8357518,0.602750344 65.784888,0.546111476 78.6995392,0.982059127 C85.9310542,1.22577789 87.4208083,5.1699027 84.6413133,16.3620863" id="Fill-1" fill="#FEFEFE" mask="url(#mask-2)"></path>
                </g>
                <path d="M60.8716306,101.627611 C61.2371721,97.1085162 60.9337037,94.4550711 56.7696339,94.7743083 C52.5314213,95.0952619 53.1900857,98.2756202 53.0952518,100.980555 C52.9883482,104.063083 53.5763183,106.726826 57.5524445,106.483107 C61.9406671,106.213643 60.7181721,102.744942 60.8716306,101.627611 M72.5103349,115.996721 C72.6086173,113.006875 72.8000093,110.087399 68.6411123,109.872857 C64.5270458,109.661749 64.1684013,112.308329 64.2511654,115.382275 C64.3270326,118.167877 63.8028598,121.221227 68.1238365,121.367115 C72.1861754,121.506138 72.7241422,119.041489 72.5103349,115.996721 M63.3993847,84.8093002 C63.927006,89.0160234 65.3857236,91.6179787 70.503305,91.9097547 C76.2743781,92.2392899 76.0898831,96.8682301 75.3122452,101.045776 C73.4017734,101.533213 72.8655309,100.832951 72.8172518,99.9970985 C72.6327568,96.7652503 71.7309728,94.4825323 67.7600193,94.7434144 C64.4977336,94.9579556 64.1804711,97.0158344 64.295996,99.4667527 C64.4356605,102.406825 63.1597136,106.368113 68.1497003,106.441915 C74.9484279,106.541462 75.898491,110.641773 75.8519362,116.173502 C75.8071056,121.700083 74.0087103,124.979988 67.8996837,124.669333 C62.8717635,124.411883 65.3150292,129.576318 62.042398,132.361921 C64.4580757,121.796197 45.4326738,127.672909 50.6726771,115.133407 C52.2141588,114.555004 52.7521256,115.756434 52.8090259,116.73131 C53.0245575,120.387091 54.8936472,121.866567 58.4266405,121.298462 C61.8216937,120.752669 60.97681,117.982514 60.9664645,115.888592 C60.9543947,113.264324 62.0855043,109.714955 57.350707,109.783608 C51.1520193,109.871141 49.7933083,106.251403 49.8329661,100.860412 C49.8726239,95.3132357 50.760614,91.0206961 57.692109,91.5201479 C62.5717435,91.8719954 59.6698266,86.1205758 63.3993847,84.8093002" id="Fill-4" fill="#FEFEFE"></path>
            </g>
        </g>
    </g>
</svg>