<?xml version="1.0" encoding="UTF-8" standalone="no"?>
<svg width="175px" height="132px" viewBox="0 0 175 132" version="1.1" xmlns="http://www.w3.org/2000/svg" xmlns:xlink="http://www.w3.org/1999/xlink">
    <!-- Generator: Sketch 43.1 (39012) - http://www.bohemiancoding.com/sketch -->
    <title>Artboard Copy 3</title>
    <desc>Created with Sketch.</desc>
    <defs>
        <polygon id="path-1" points="93.6454106 93.8334597 0.000183111391 93.8334597 0.000183111391 0.409504942 93.6454106 0.409504942 93.6454106 93.8334597"></polygon>
    </defs>
    <g id="Page-1" stroke="none" stroke-width="1" fill="none" fill-rule="evenodd">
        <g id="Artboard-Copy-3">
            <g id="Page-1" transform="translate(38.000000, 18.000000)">
                <g id="Group-3" transform="translate(0.000000, 0.082555)">
                    <mask id="mask-2" fill="white">
                        <use xlink:href="#path-1"></use>
                    </mask>
                    <g id="Clip-2"></g>
                    <path d="M17.9998896,43.4963245 L17.9998896,43.5295127 C15.5925899,43.5295127 13.1759395,43.6550052 10.7790296,43.4963245 C7.99977775,43.3117157 7.22262621,44.5842723 7.23093799,47.1615366 C7.23924977,49.569749 8.09744118,50.5736894 10.5265593,50.5394642 C14.9962196,50.4761993 19.4710748,50.5010904 23.9396962,50.6213973 C26.4633608,50.6898478 27.6872706,49.9109643 27.7225957,47.1314599 C27.7568818,44.4701882 26.8862227,43.3200127 24.1900886,43.4735077 C22.1329228,43.5896661 20.0632893,43.4963245 17.9998896,43.4963245 M17.260141,23.2754303 L17.260141,23.2588362 C19.5095168,23.2588362 21.7672044,23.1416407 24.0072295,23.2909872 C26.6264795,23.4652248 27.7506479,22.5888512 27.7184398,19.7927528 C27.6893485,17.2372682 27.1096018,15.9356719 24.2451542,16.0393848 C19.9251059,16.1970283 15.5915509,16.1441348 11.2683857,16.0186422 C8.52134203,15.9387833 7.19353497,16.7041841 7.19769086,19.8051983 C7.20080778,23.1758659 9.08446521,23.3594377 11.5499473,23.2868387 C13.4512673,23.2297966 15.3567431,23.2754303 17.260141,23.2754303 M14.7614118,34.3778908 C12.5307375,34.3778908 10.2948683,34.4774552 8.07146687,34.3529997 C5.42104762,34.2036532 4.43090668,35.2853783 4.43921846,37.9507985 C4.44856922,40.6328128 5.52494489,41.6243076 8.12237653,41.5693398 C12.5806082,41.473924 17.0440347,41.4645898 21.5012274,41.5641542 C24.1609974,41.6232705 25.1043846,40.4948747 25.1428266,37.8854594 C25.1823075,35.1495144 24.0373597,34.2171359 21.4503177,34.3561111 C19.2269163,34.4784923 16.9910471,34.3820393 14.7614118,34.3778908 M12.1567073,32.4384605 C14.3873816,32.4384605 16.6211728,32.3731214 18.8487302,32.4560917 C21.2009643,32.5432105 22.846697,32.1283591 22.8363073,29.1870627 C22.8269565,26.4687489 22.0643506,25.0395859 19.0170438,25.1661155 C14.7343985,25.3424274 10.4351297,25.3092393 6.14936745,25.1723383 C3.34933615,25.0841824 2.12127047,25.9989297 2.18153088,28.987934 C2.23763541,31.7684755 3.468818,32.5836585 5.98001491,32.4602402 C8.03406385,32.3606759 10.0974635,32.4405348 12.1567073,32.4384605 M35.9439863,2.42811042 L35.9439863,2.4530015 C32.3096599,2.4530015 28.6742946,2.39907082 25.0420462,2.4675213 C21.5718775,2.53389752 20.6274514,4.33227833 22.4051336,7.17815892 C24.1059319,9.9037326 25.2197105,12.9445934 28.126756,15.0147018 C30.8613321,16.9624291 30.2795074,23.9599351 27.3257081,24.8207517 C23.8763189,25.8257293 24.2004784,28.4569242 24.9454218,29.9628348 C26.9776523,34.0709008 26.1807602,38.8240607 28.6826064,42.8190796 C31.8795253,47.9248632 29.2519634,52.4114811 23.3828069,52.4737088 C20.4414753,52.5058598 17.4939099,52.5898672 14.5588121,52.4436321 C12.0673557,52.3191766 10.8091598,53.2494809 10.1899321,55.728218 C8.89225526,60.9252689 7.51249958,66.0860203 7.09794949,71.4583459 C6.46105925,79.7087031 8.47562723,83.985821 15.9905164,87.1635827 C30.5402895,93.3137547 45.338377,93.3210146 59.8476302,87.013199 C67.3219995,83.7638755 69.6596879,78.6892058 68.4607135,70.6649426 C67.1755043,62.0629989 64.3505377,53.9298372 60.9333566,45.9636532 C60.1167241,44.0584482 59.0278807,42.9632405 56.9530524,42.3876342 C52.5228729,41.1555255 50.6807744,37.8087119 50.5353183,33.4133613 C50.4553174,30.9968519 50.3327186,28.567897 50.4927204,26.1617589 C50.7659702,22.0516187 48.7836104,20.5228913 44.8988916,20.7033516 C42.6536717,20.8081016 40.3918282,20.8267699 38.1518032,20.6691264 C33.8566902,20.3683591 32.2078406,17.8066517 32.3179717,13.6902887 C32.4281028,9.5905198 35.2509915,9.64652474 38.1351796,9.65171038 C40.7305333,9.65585889 43.327965,9.68904701 45.9222797,9.61437375 C48.8334811,9.53140347 49.7675175,7.21549555 49.9254413,5.04997125 C50.1218071,2.37106835 47.7290531,2.45196437 45.8090317,2.43537031 C42.5206832,2.40840497 39.2323347,2.42811042 35.9439863,2.42811042 M51.001817,9.88713855 C57.8424129,8.34803986 61.6180396,11.9095391 64.7308016,16.6512906 C68.0794105,21.7539628 72.659202,23.8074772 78.8597908,23.3843288 C83.4686735,23.0721531 88.2437918,22.6427819 93.6454106,24.0418682 C80.3933144,28.2349787 69.3417623,25.161967 61.411284,15.4668898 C59.3156762,12.9041453 57.0237025,11.3608981 53.4787278,11.5361729 C48.2973712,11.7933807 43.0931571,11.5994377 37.8993328,11.6170689 C36.1704823,11.6232916 34.3096823,11.4106803 34.284747,14.0543208 C34.2629285,16.3868228 34.9476115,18.3428472 37.4806268,18.6073149 C40.3959841,18.9111936 43.3570562,18.7649585 46.2983878,18.8240748 C50.3202509,18.9039337 52.3254681,20.9761164 52.368066,24.9742468 C52.3722219,25.3196105 52.4002742,25.6660115 52.3930014,26.0113753 C52.104167,39.4276695 52.3919624,39.8155555 65.591071,42.1864313 C59.9889304,45.2407747 64.8284651,48.3583829 65.2980807,51.4614714 C65.8393855,55.0323048 68.3557772,54.5178891 70.8264542,54.0294015 C77.6130236,52.6883944 84.3507613,51.0455829 91.2952545,50.6805136 C91.7648701,50.6545854 92.2490314,50.9159418 92.7487772,51.0507685 C92.7425434,53.2007359 91.0614857,52.4125182 90.1295272,52.5857187 C83.8375088,53.7535254 77.5434124,54.9462231 71.2108741,55.8547477 C68.1136966,56.2996758 67.036282,57.1470098 68.1677232,60.4958977 C69.3739704,64.0646568 69.9080024,67.8844011 70.5116455,71.6305092 C71.7397112,79.2575522 68.6612352,85.0416178 61.8518084,88.2442706 C45.8879936,95.7499695 29.685215,95.6649249 13.7338678,88.1789315 C7.1280797,85.0799915 3.97375871,79.5666165 5.12805733,72.0775116 C5.78468805,67.8149135 6.46625411,63.5554268 7.28080868,59.3218682 C7.86782823,56.2716733 9.20186912,53.8033075 6.13378286,50.5674666 C3.98830433,48.3054894 4.83402807,43.7037502 2.97218907,40.1992931 C1.62775846,37.6697367 1.63295332,34.1320914 0.600214503,31.0383371 C-0.32447116,28.2702411 -0.776424265,24.6942221 3.85012097,23.0597076 C7.32756245,21.8307103 3.54777993,16.6243252 7.10626127,14.7377885 C8.88913835,13.7908902 10.8340952,14.1497367 12.7177526,14.1227713 C16.1432454,14.0750634 19.5708162,14.1092886 23.111635,14.1092886 C23.0066988,11.0518338 20.9682344,9.37894559 20.1058871,7.18230743 C18.7105469,3.63117947 20.2461484,0.719959785 24.0529442,0.602764265 C31.8369274,0.364224711 39.639612,0.329999471 47.4215172,0.593430108 C51.7789685,0.740702355 52.6766409,3.12402364 51.001817,9.88713855" id="Fill-1" fill="#FEFEFE" mask="url(#mask-2)"></path>
                </g>
                <path d="M36.6790594,61.410645 C36.8993216,58.6798857 36.7164625,57.0764851 34.2073435,57.269391 C31.6535487,57.463334 32.0504363,59.3851331 31.9932928,61.0196476 C31.9288765,62.8823304 32.2831661,64.4919538 34.6790371,64.3446815 C37.3232225,64.1818524 36.5865909,62.0858157 36.6790594,61.410645 M43.6921249,70.0934848 C43.7513463,68.2868069 43.8666723,66.5226514 41.3606702,66.3930103 C38.8816815,66.2654435 38.6655752,67.8646957 38.7154458,69.7221928 C38.7611606,71.4054523 38.445313,73.2505039 41.0489784,73.3386598 C43.496798,73.4226673 43.8209575,71.9333507 43.6921249,70.0934848 M38.2021934,51.2478229 C38.520119,53.7898249 39.3990899,55.3621117 42.4827607,55.5384235 C45.9602022,55.7375522 45.8490321,58.5346877 45.3804554,61.0590585 C44.2292737,61.353603 43.9061532,60.9304545 43.877062,60.425373 C43.7658919,58.47246 43.2225092,57.0930791 40.8297552,57.2507226 C38.8640189,57.3803637 38.672848,58.6238808 38.7424591,60.1049003 C38.8266159,61.8815014 38.0577762,64.2751939 41.064563,64.3197905 C45.1612322,64.3799439 45.7337061,66.8576439 45.7056539,70.200309 C45.6786406,73.5398628 44.5949921,75.5218153 40.913912,75.3340951 C37.8842677,75.1785258 39.356492,78.2992454 37.3845219,79.982505 C38.8401226,73.597942 27.3760983,77.1490699 30.5335362,69.5718092 C31.4623777,69.2222969 31.7865372,69.9482868 31.8208233,70.5373758 C31.9506949,72.7464595 33.0769412,73.6404642 35.2057962,73.2971747 C37.2515334,72.9673678 36.7424368,71.2934425 36.7362029,70.0281457 C36.7289301,68.4423762 37.4104962,66.2975945 34.5574773,66.3390796 C30.8223706,66.3919732 30.0036601,64.2046692 30.0275565,60.9470486 C30.0514529,57.5950493 30.5865238,55.0011909 34.7631939,55.3029953 C37.7034865,55.5156067 35.9548955,52.0401891 38.2021934,51.2478229" id="Fill-4" fill="#FEFEFE"></path>
            </g>
        </g>
    </g>
</svg>