<?xml version="1.0" encoding="UTF-8" standalone="no"?>
<svg width="295px" height="270px" viewBox="0 0 295 270" version="1.1" xmlns="http://www.w3.org/2000/svg" xmlns:xlink="http://www.w3.org/1999/xlink">
    <!-- Generator: Sketch 43.1 (39012) - http://www.bohemiancoding.com/sketch -->
    <title>Artboard 5 Copy</title>
    <desc>Created with Sketch.</desc>
    <defs>
        <polygon id="path-1" points="0.000260070732 0 142.691339 0 142.691339 139.594316 0.000260070732 139.594316"></polygon>
    </defs>
    <g id="Page-1" stroke="none" stroke-width="1" fill="none" fill-rule="evenodd">
        <g id="Artboard-5-Copy">
            <ellipse id="Oval-2-Copy-25" fill="#F9A84A" cx="141" cy="131.5" rx="125" ry="120.5"></ellipse>
            <g id="Page-1-Copy" transform="translate(66.000000, 60.000000)">
                <mask id="mask-2" fill="white">
                    <use xlink:href="#path-1"></use>
                </mask>
                <g id="Clip-2"></g>
                <path d="M84.2969578,3.821039 C91.8507225,11.0213107 98.699301,18.4712141 103.799634,27.4509835 C105.406281,30.2806079 108.336379,32.5747096 111.54687,32.7085903 C117.261262,32.9456707 123.085007,33.9902191 129.626556,32.1117055 C118.159919,16.1701395 103.32437,6.70644711 84.2969578,3.821039 M74.3304186,16.9887642 L74.3023794,16.9887642 C74.3023794,20.9284829 74.3416343,24.8668069 74.2869578,28.8037364 C74.2547127,31.1898811 74.851948,32.8926763 77.7007324,32.873152 C84.6867029,32.8285251 91.6740755,32.8829142 98.6586441,32.7741361 C101.602762,32.7281146 103.229036,31.3614157 101.559301,28.3435215 C95.9556637,18.2229769 88.2126343,9.99070816 78.6582716,3.48215347 C76.0744578,1.72218003 74.2729382,2.31906484 74.3206049,5.87527107 C74.3682716,9.57930391 74.3304186,13.2847313 74.3304186,16.9887642 M103.791223,106.482437 C94.7205363,106.482437 86.7980559,106.580059 78.8797814,106.435021 C75.6959284,106.376448 74.174801,107.280143 74.2491049,110.731755 C74.4145363,118.381085 74.3360265,126.037388 74.2869578,133.688112 C74.2631245,137.436772 75.8291147,137.502318 78.5166735,135.75629 C89.4715951,128.641089 97.73335,119.255493 103.791223,106.482437 M63.306801,2.9536036 C42.8802324,7.23639157 28.2185265,16.3151769 17.3869775,32.0322138 C23.2934382,34.4839043 29.3274775,31.1020219 36.2517618,35.3095019 C29.8546147,35.3095019 25.4244186,35.6720955 21.0811441,35.2132752 C16.3074676,34.7056442 13.9255363,36.6329685 12.1015853,40.839054 C9.11821275,47.7185698 6.96339902,54.7445176 6.01286961,62.1679238 C5.49414412,66.2219989 7.2788402,68.3487497 11.2505951,68.6667164 C13.3409186,68.8354618 15.4550755,68.7266838 17.5580167,68.7308675 C30.95235,68.753181 30.9663696,68.7545756 33.1043598,55.6286881 C34.0128304,50.0531146 34.5189382,44.3506333 38.2958206,39.7540624 C37.709801,44.8471076 36.3779382,49.7239912 35.3615167,54.665026 C32.5393696,68.3836145 32.8562127,68.7280784 46.5071049,68.7266838 C50.0120069,68.7266838 53.5239186,68.5900139 57.0204088,68.7643377 C60.6094284,68.9456345 64.3807029,68.0391506 67.7608304,70.2272633 C60.5421343,70.9538451 53.3711049,70.9482667 46.2014775,70.9538451 C32.9459382,70.9650018 32.6094676,71.3401467 35.3895559,84.7365848 C36.456448,89.8742568 37.814948,94.9533561 39.0402618,100.058953 C35.0586931,96.2084877 34.8638206,91.2284044 33.4828892,86.6541469 C31.9715755,81.648961 34.2721931,74.2255548 30.2583794,71.8435939 C26.0791343,69.3626171 19.3861735,71.0626232 13.790948,70.960818 C12.8600461,70.9426884 11.9151245,70.9859207 10.9968402,71.1267743 C7.10219314,71.7236591 5.3483402,73.7876533 5.97922255,77.880777 C7.19051667,85.7337171 9.37757549,93.2324312 12.9035069,100.399233 C14.4596833,103.562164 16.4658892,104.641578 19.9876147,104.620659 C25.0094382,104.594161 30.1476245,103.810401 35.1035559,106.662339 L17.1584578,106.662339 C26.9034873,122.967894 49.6657225,136.936114 62.3226245,134.918141 C54.1351735,128.264549 47.18285,120.779781 43.5195265,110.853084 C45.5229284,112.515436 46.9781637,114.583614 48.3857324,116.683868 C53.2379186,123.91761 59.3911245,129.901798 66.3294284,135.117568 C67.7818598,136.210927 69.3212127,137.707323 71.3526539,136.750633 C73.2971735,135.834387 72.3270167,133.869409 72.352252,132.403694 C72.4728206,125.43353 72.2611245,118.453604 72.5022618,111.489018 C72.6410559,107.499094 71.1269382,106.25233 67.204252,106.411313 C60.5154971,106.686047 53.8071147,106.488016 47.1085461,106.488016 C53.2168892,103.824347 59.5116931,104.350108 65.6578892,104.691783 C71.4704186,105.016722 72.8078892,102.789561 72.5218892,97.5207975 C72.1279382,90.2535855 72.423752,82.9459303 72.423752,75.6564049 C73.8972127,76.136144 74.1916245,76.5503375 74.1958304,76.9701093 C74.2575167,82.5456828 74.2967716,88.1226509 74.3037814,93.6996191 C74.316399,104.549535 74.3079873,104.549535 84.9264382,104.557902 C108.318154,104.580216 108.318154,104.580216 111.657625,81.0604437 C113.097438,70.9189803 113.097438,70.9259533 103.062203,70.9412938 C96.7533794,70.9524505 90.441752,71.0375205 84.1371343,70.8729588 C82.3538402,70.8269373 80.0167716,71.8477777 78.3021735,68.7211054 C88.401899,68.7211054 97.9198108,68.5788572 107.429311,68.7936241 C111.112262,68.875905 112.329164,67.7448919 112.127281,64.0408591 C111.73333,56.7973551 110.17435,49.8564773 108.065801,42.9448859 C106.453546,37.6621764 102.613575,35.6707009 97.7151245,35.4113071 C91.8899775,35.1031025 86.0199676,35.5870255 80.2004284,35.2272211 C75.6216245,34.9427246 74.0177814,36.4572501 74.2168598,41.0649777 C74.5407127,48.5957673 74.3037814,56.1516596 74.3037814,63.6977898 C73.6785069,63.6908168 73.0532324,63.6838439 72.4279578,63.6768709 C72.4279578,57.019095 71.9961539,50.3292435 72.5499284,43.7188837 C73.0966931,37.1908048 71.3582618,34.4127801 64.2517225,35.1993293 C58.2064676,35.8673382 52.0252225,35.3373937 44.0704971,35.3373937 C47.6511049,32.280451 50.0372422,32.9526437 52.18785,32.9163843 C57.5601637,32.8285251 62.9338794,32.8898871 68.3075951,32.8857033 C70.5773696,32.8829142 72.4447814,32.5677367 72.4097324,29.5484478 C72.3228108,21.6480916 72.4265559,13.7449463 72.3690755,5.84459007 C72.3382324,1.54506701 70.0095755,1.99691439 67.3570657,3.68994748 C61.2108696,7.61153646 55.7894873,12.3615123 51.3803206,18.1671933 C48.5091049,21.9521124 45.8327618,25.8834635 43.0680951,29.7492689 C46.183252,18.8644887 53.8772127,11.3741421 63.306801,2.9536036 M126.996477,106.111476 C130.471938,101.13976 136.768144,98.3784708 137.707458,91.3316041 C138.400026,86.139543 140.202948,81.0953085 142.071762,76.0789658 C143.403625,81.7591337 141.051134,86.9525894 139.663193,92.2352988 C138.388811,97.082896 135.671811,101.325241 135.052144,106.612134 C134.519399,111.164078 128.562468,112.426183 125.494977,115.901503 C105.608164,138.422748 74.9781245,145.694143 47.1646245,134.226424 C22.4158108,124.019415 8.01767353,105.232884 3.9898402,78.7942339 C3.63374216,76.4568999 3.50896765,74.2436845 1.51818333,72.5548352 C0.44007549,71.6399837 -0.523071569,70.1073285 0.323712745,68.8410402 C6.49654608,59.6116391 5.6483598,48.1732064 10.681399,38.3650501 C23.8149676,12.7701274 54.0005853,-3.55355651 82.7716245,0.660896523 C113.600742,5.17797573 138.422458,29.2932377 142.607311,58.8501926 C142.828821,60.4163179 142.636752,62.0396215 141.738095,63.8260921 C140.159487,58.0078598 138.857066,52.0975845 136.941987,46.3909195 C133.324928,35.6218902 132.349164,35.0779999 121.207781,35.0891566 C108.731732,35.1017079 108.88034,35.0668432 111.703889,47.1858362 C113.016125,52.8185879 114.046566,58.5866149 114.405468,64.3406961 C114.646605,68.2037123 116.129879,68.9135589 119.518419,68.7852566 C125.290291,68.5663058 131.077585,68.7252892 136.873291,69.3305415 C131.662203,71.8924046 126.13287,70.8743534 120.764762,70.8590129 C116.659821,70.8478562 114.513419,71.4851841 114.189566,76.3481218 C113.651213,84.4283802 112.270281,92.5044548 109.065399,100.046401 C107.203595,104.428205 109.626183,104.277589 112.780595,104.66668 C117.592125,105.257987 122.827046,102.408838 127.230605,106.345767 C121.663419,106.390394 116.089223,106.419681 110.516428,106.47407 C108.709301,106.492199 106.686272,106.04872 105.664242,108.200573 C100.50783,119.053278 92.6189971,127.80294 82.6931147,136.205348 C99.9063892,134.132987 116.933203,124.450344 125.907154,112.428972 C127.438095,110.376134 128.247026,108.496226 126.996477,106.111476" id="Fill-1" fill="#FEFEFE" mask="url(#mask-2)"></path>
            </g>
        </g>
    </g>
</svg>