<?xml version="1.0" encoding="UTF-8" standalone="no"?>
<svg width="249px" height="174px" viewBox="0 0 249 174" version="1.1" xmlns="http://www.w3.org/2000/svg" xmlns:xlink="http://www.w3.org/1999/xlink">
    <!-- Generator: Sketch 43.1 (39012) - http://www.bohemiancoding.com/sketch -->
    <title>Artboard Copy</title>
    <desc>Created with Sketch.</desc>
    <defs>
        <polygon id="path-1" points="2.77200154e-15 42.4890972 2.77200154e-15 0.0426527196 30.6049468 0.0426527196 30.6049468 42.4890972 0 42.4890972"></polygon>
        <polygon id="path-3" points="36.3728587 0.491967718 36.3728587 22.475362 0.368255418 22.475362 0.368255418 0.491967718 36.3728587 0.491967718"></polygon>
    </defs>
    <g id="Page-1" stroke="none" stroke-width="1" fill="none" fill-rule="evenodd">
        <g id="Artboard-Copy">
            <g id="Page-1" transform="translate(22.000000, 19.000000)">
                <path d="M142.895163,9.85744255 C152.874556,19.7763226 163.242411,28.9825901 164.89024,43.7712489 C160.886579,31.8236842 152.945043,22.7187729 144.010424,14.2718977 C141.151785,11.5711431 138.482677,10.8725645 134.283218,11.4495156 C124.618667,12.7780623 115.359808,9.08089762 106.212162,6.64055062 C92.5094891,2.98548777 81.7014823,10.5373092 72.7261376,17.2268227 C66.690884,21.7223629 65.5411627,33.2941297 63.2934105,41.9811413 C62.3426192,45.6580347 66.3948386,47.2048872 69.8189404,46.2162738 C77.3281555,44.0503684 84.0463499,40.2502881 86.4084476,32.3476181 C87.5409387,28.5584531 89.2263612,28.090655 92.426471,28.3214354 C99.9168896,28.8625219 107.419839,29.2336418 114.91809,30.9925628 C108.24532,30.9925628 101.569418,31.1251056 94.901348,30.9379864 C91.4709806,30.8413081 89.5599997,31.4619203 87.8604798,35.1466104 C84.3220324,42.8231779 78.0189281,47.8894319 69.17046,48.4663829 C61.512439,48.9638083 57.7703625,43.6932825 61.2602522,36.9008534 C64.3663793,30.8569013 67.1091068,24.792678 68.6441571,18.1842496 C68.8744146,17.1893988 69.2268496,15.6768515 69.9129231,15.4148845 C81.0138425,11.179752 90.2241439,1.2702279 103.699692,4.10352534 C108.282913,5.0656302 113.00241,5.61607268 117.425861,7.06468761 C127.323802,10.3065288 136.823883,9.67967925 146.278539,5.536547 C149.765296,4.00840639 153.432187,2.88880949 157.28391,2.16684102 C153.804985,6.50021118 147.890342,6.27566807 142.895163,9.85744255" id="Fill-1" fill="#FFFFFF"></path>
                <path d="M32.8616662,84.6168881 C36.3421577,84.5560743 46.290223,73.69692 45.5242643,70.3552819 C44.7348098,66.8966943 42.4901905,64.3128892 38.5852106,64.1553972 C35.3428086,64.0244137 25.4386019,75.207908 25.9523738,78.496529 C26.5397654,82.2623041 29.0851294,84.2223783 32.8616662,84.6168881 M60.5959513,78.5464275 C63.2258997,80.269484 66.714223,78.9736831 69.3065782,81.3797249 C74.0887296,85.8160107 73.8866669,90.0480246 67.1418441,97.2942179 C62.9925094,101.749216 61.6877167,105.463533 67.5318722,109.238664 C69.4068264,110.450261 71.5480649,110.9165 73.2632485,109.145104 C76.1453837,106.169908 79.6196096,103.380272 81.3817846,99.7984973 C84.3030792,93.8621388 78.6484554,91.9862682 74.3095889,89.2106659 C79.2201833,88.1893066 81.7138567,90.450331 83.5856782,93.7935284 C85.3259239,96.8981488 84.6539478,99.8203279 82.5127094,102.43532 C80.3777365,105.044074 78.1754093,107.606048 75.8556038,110.052633 C74.4020052,111.583892 72.1229255,113.330338 70.3764143,112.269996 C63.753769,108.25161 55.4457012,107.057165 49.7393869,102.293421 C42.9225107,96.6018766 36.4752998,90.5127041 28.7937831,85.9532315 C25.3101589,83.8855637 22.8493794,80.9197234 23.9380119,77.0900159 C25.7581429,70.6858593 30.4306479,65.8987249 36.0226166,62.6179006 C38.9188491,60.918234 42.6515274,62.014441 45.2125551,64.8867216 C48.4017003,68.4622588 48.9029411,72.1718981 45.784283,76.0374701 C43.5052033,78.8645302 41.02876,81.5434543 38.8984862,84.4749893 C36.9452131,87.16171 37.3947635,89.9466683 39.8195163,92.1499976 C42.4604293,94.5498021 45.4898039,94.8647862 48.2325315,92.3948119 C50.3440087,90.4955515 52.1108829,88.2173745 54.0296957,86.1044862 C61.2898567,78.1207312 60.4001541,74.5639059 49.5420233,70.494062 C56.8726713,69.1779899 60.5019687,71.6557608 60.7588546,78.6820889 C60.2779767,85.0379064 54.8269819,88.0941877 51.4984291,92.5320327 C49.1441633,95.6725176 48.4784528,98.5182897 51.6722971,101.320401 C54.9679559,104.209834 58.1257736,103.693697 61.2616619,100.810501 C72.469095,90.5064668 72.4628295,87.7885595 61.0251389,79.1857516 C60.8324744,79.0391749 60.7369253,78.763174 60.5959513,78.5464275" id="Fill-3" fill="#FFFFFF"></path>
                <path d="M107.235477,33.3616486 C120.913087,46.3695557 134.930602,59.0484448 148.114804,72.5319467 C153.888473,78.438678 151.916403,84.2565276 144.444781,87.2894189 C142.778155,87.9661669 142.251852,88.371592 141.907249,90.2724118 C140.09495,100.272377 133.539659,102.826555 125.356901,96.4613812 C113.477492,87.2192492 101.928589,77.5576581 90.1682242,68.0192539 C92.5710477,65.5446017 93.6737777,68.0566778 94.753012,68.9080704 C104.542873,76.6438924 114.223088,84.5169352 123.929931,92.3556728 C125.143874,93.3349303 126.241905,94.4716798 127.523202,95.344903 C131.439146,98.0144711 135.687163,98.3559637 138.721237,94.5683581 C141.821098,90.6981081 139.319593,87.1989779 136.114784,84.5294098 C125.931762,76.0451108 115.656324,67.6652867 105.446673,59.2090555 C104.322014,58.2781372 102.57237,57.7697965 102.743105,54.3190055 C111.835928,61.7008603 120.258342,68.5338319 128.674489,75.3730408 C131.700731,77.833659 134.856983,80.1570565 137.69056,82.8203873 C140.83428,85.7768716 144.128373,86.4629755 147.4162,83.6499493 C150.931151,80.6404479 148.746054,77.1257245 146.786516,74.6510723 C140.484978,66.6875885 132.349212,60.5095343 124.991935,53.5689692 C118.47737,47.4221015 111.9863,41.2502846 105.484266,35.0878237 C106.066959,34.512432 106.651218,33.9370403 107.235477,33.3616486" id="Fill-5" fill="#FFFFFF"></path>
                <path d="M18.1301964,0.000467798146 C37.9339108,11.2837591 58.4550262,4.08434562 78.69576,2.3316619 C80.5080591,2.17572918 82.3046944,1.81864326 84.1169935,1.69857507 C84.815598,1.65335458 85.5408309,2.01199983 87.5457945,2.50162856 C80.2088809,5.74658837 73.3230842,4.79383947 66.871174,5.9664535 C58.4440615,7.49771276 49.8587449,8.20876594 41.3204195,9.06483655 C32.0819233,9.99263621 25.7725536,3.28752944 18.1301964,0.000467798146" id="Fill-7" fill="#FFFFFF"></path>
                <g id="Group-11" transform="translate(0.000000, 22.984711)">
                    <mask id="mask-2" fill="white">
                        <use xlink:href="#path-1"></use>
                    </mask>
                    <g id="Clip-10"></g>
                    <path d="M0.448767237,36.4591791 C1.72693151,36.4591791 3.0254587,36.3079244 4.27856093,36.482569 C22.1227367,38.9556619 17.5865066,41.5909248 25.3557405,23.45595 C28.5182572,16.0740952 28.5041598,7.89854293 29.7259345,0.0426527196 C32.2055105,11.8155727 29.168304,22.7230662 24.0070892,33.126897 C22.1462324,36.8786381 20.6801028,39.8772242 25.3385103,42.4890972 C16.8926013,40.9453633 8.44512585,39.4000701 -0.000783188895,37.8563362 C0.149589079,37.3900974 0.299961347,36.9254179 0.448767237,36.4591791" id="Fill-9" fill="#FFFFFF" mask="url(#mask-2)"></path>
                </g>
                <g id="Group-14" transform="translate(147.239512, 45.543736)">
                    <mask id="mask-4" fill="white">
                        <use xlink:href="#path-3"></use>
                    </mask>
                    <g id="Clip-13"></g>
                    <path d="M36.3730153,0.491967718 C22.0516232,3.08201012 15.2895702,17.6726343 0.368255418,22.475362 C19.9229157,4.74113422 25.1154581,1.49929306 36.3730153,0.491967718" id="Fill-12" fill="#FFFFFF" mask="url(#mask-4)"></path>
                </g>
                <path d="M98.1507987,91.6444637 C102.168558,93.1398585 104.768745,96.5391917 108.029943,99.0372338 C113.419849,103.166332 118.556002,104.853524 123.909881,98.1499766 C122.28868,104.644574 117.35459,106.681055 111.132938,103.604503 C105.763395,100.948969 101.311749,96.9726846 97.3488133,92.4911784 C97.6150975,92.2073808 97.8829481,91.9267019 98.1507987,91.6444637" id="Fill-15" fill="#FFFFFF"></path>
                <path d="M97.3485,92.4911784 C91.2552904,87.7679764 85.1620808,83.0447745 79.0704375,78.3231318 C79.5184216,77.775808 79.967972,77.2300435 80.4159561,76.6811603 C86.5514579,81.384091 93.0080671,85.6753594 98.1504854,91.6444637 C97.8826348,91.9267019 97.6147842,92.2073808 97.3485,92.4911784" id="Fill-17" fill="#FFFFFF"></path>
                <path d="M107.094033,105.178956 C102.078491,112.001012 96.1983088,110.703652 86.8783609,100.552432 C94.1369556,102.113318 98.8125933,112.269216 107.094033,105.178956" id="Fill-19" fill="#FFFFFF"></path>
            </g>
        </g>
    </g>
</svg>