<?xml version="1.0" encoding="UTF-8" standalone="no"?>
<svg width="414px" height="705px" viewBox="0 0 414 705" version="1.1" xmlns="http://www.w3.org/2000/svg" xmlns:xlink="http://www.w3.org/1999/xlink">
    <!-- Generator: Sketch 43.1 (39012) - http://www.bohemiancoding.com/sketch -->
    <title>Artboard Copy 4</title>
    <desc>Created with Sketch.</desc>
    <defs>
        <rect id="path-1" x="0" y="0" width="332" height="634" rx="34"></rect>
        <filter x="-4.8%" y="-2.2%" width="111.4%" height="106.0%" filterUnits="objectBoundingBox" id="filter-2">
            <feMorphology radius="1" operator="dilate" in="SourceAlpha" result="shadowSpreadOuter1"></feMorphology>
            <feOffset dx="3" dy="5" in="shadowSpreadOuter1" result="shadowOffsetOuter1"></feOffset>
            <feGaussianBlur stdDeviation="4.5" in="shadowOffsetOuter1" result="shadowBlurOuter1"></feGaussianBlur>
            <feColorMatrix values="0 0 0 0 0.701960784   0 0 0 0 0.701960784   0 0 0 0 0.701960784  0 0 0 0.5 0" type="matrix" in="shadowBlurOuter1"></feColorMatrix>
        </filter>
    </defs>
    <g id="Page-1" stroke="none" stroke-width="1" fill="none" fill-rule="evenodd">
        <g id="Artboard-Copy-4">
            <g id="iphone-2" transform="translate(39.000000, 17.000000)">
                <g id="Rectangle">
                    <use fill="black" fill-opacity="1" filter="url(#filter-2)" xlink:href="#path-1"></use>
                    <use fill="#FFFFFF" fill-rule="evenodd" xlink:href="#path-1"></use>
                </g>
                <rect id="Rectangle-13" fill="#F4F4F4" x="15.4418605" y="70.6898955" width="303.322259" height="489.30662"></rect>
                <ellipse id="Oval" fill="#F2F2F2" cx="164.89701" cy="592.580139" rx="24.8172757" ry="24.8519164"></ellipse>
                <rect id="Rectangle-14" fill="#F1F1F1" x="135.667774" y="35.3449477" width="62.8704319" height="7.73170732" rx="3.86585366"></rect>
                <path d="M52.3012414,139.001676 C52.3012414,125.745916 63.0542406,115 76.2920547,115 L273.627421,115 C289.088643,115 301.62244,127.544314 301.62244,142.992476 L301.62244,143.530653 C301.62244,158.99047 289.087286,171.486696 273.61902,171.441738 L40.8184061,170.765112 L46.6271046,163.611551 C49.7608438,159.752271 52.3012414,152.59483 52.3012414,147.617616 L52.3012414,139.001676 Z" id="Rectangle-6-Copy-5" fill="#FFC883"></path>
                <path d="M45.4828352,340.144657 C45.4828352,326.888897 56.2358345,316.14298 69.4736486,316.14298 L266.809015,316.14298 C282.270237,316.14298 294.804034,328.687295 294.804034,344.135456 L294.804034,344.673633 C294.804034,360.133451 282.268879,372.629676 266.800614,372.584718 L34,371.908093 L39.8086985,364.754532 C42.9424377,360.895251 45.4828352,353.737811 45.4828352,348.760597 L45.4828352,340.144657 Z" id="Rectangle-6-Copy-6" fill="#FFC883"></path>
                <path d="M290.139605,236.032768 C290.139605,224.732316 280.989053,215.57149 269.683662,215.57149 L64.6819928,215.57149 C51.5024978,215.57149 40.8184061,226.252883 40.8184061,239.439982 L40.8184061,248.226127 C40.8184061,261.408331 51.5079929,272.06355 64.6834011,272.025256 L301.62244,271.336602 L294.97608,263.15144 C292.304968,259.861897 290.139605,253.753542 290.139605,249.524397" id="Rectangle-6-Copy-7" fill="#E2DEDE"></path>
                <path d="M283.321199,437.175748 C283.321199,425.875297 274.170647,416.714471 262.865256,416.714471 L57.8635867,416.714471 C44.6840917,416.714471 34,427.395863 34,440.582962 L34,449.369108 C34,462.551312 44.6895868,473.206531 57.864995,473.168237 L294.804034,472.479583 L288.157674,464.29442 C285.486562,461.004878 283.321199,454.896522 283.321199,450.667377" id="Rectangle-6-Copy-8" fill="#E2DDDD"></path>
            </g>
        </g>
    </g>
</svg>