<?xml version="1.0" standalone="no"?>
<!DOCTYPE svg PUBLIC "-//W3C//DTD SVG 20010904//EN"
 "http://www.w3.org/TR/2001/REC-SVG-20010904/DTD/svg10.dtd">
<svg version="1.0" xmlns="http://www.w3.org/2000/svg"
 width="781.000000pt" height="218.000000pt" viewBox="0 0 781.000000 218.000000"
 preserveAspectRatio="xMidYMid meet">

<g transform="translate(0.000000,218.000000) scale(0.100000,-0.100000)"
fill="#000000" stroke="none">
<path d="M945 1991 c-20 -4 -31 -13 -33 -27 -3 -21 -1 -21 145 -17 115 4 161
1 208 -11 53 -14 61 -14 74 -1 22 22 5 33 -75 50 -69 15 -261 18 -319 6z"/>
<path d="M781 1942 c-15 -29 7 -45 39 -29 33 17 32 41 -2 45 -18 2 -30 -3 -37
-16z"/>
<path d="M1380 1927 c0 -20 22 -37 47 -37 24 0 27 7 17 34 -7 20 -64 22 -64 3z"/>
<path d="M614 1871 c-105 -65 -224 -175 -224 -207 0 -39 27 -29 92 36 33 33
81 75 107 92 25 17 48 34 51 38 3 3 24 14 47 24 41 18 59 39 47 57 -11 18 -42
8 -120 -40z"/>
<path d="M990 1884 c-165 -25 -250 -58 -221 -87 8 -8 24 -7 59 2 88 26 187 40
274 41 86 0 112 10 89 33 -11 11 -148 19 -201 11z"/>
<path d="M1510 1862 c0 -12 26 -36 68 -65 61 -42 145 -122 209 -200 27 -32 39
-34 48 -7 11 35 -102 161 -221 246 -66 47 -104 57 -104 26z"/>
<path d="M1230 1850 c0 -12 9 -22 24 -26 31 -7 46 1 46 27 0 15 -7 19 -35 19
-28 0 -35 -4 -35 -20z"/>
<path d="M1377 1827 c-23 -17 -11 -30 53 -62 71 -35 178 -111 209 -148 40 -48
53 -58 65 -54 63 21 -123 198 -275 261 -29 12 -40 13 -52 3z"/>
<path d="M656 1774 c-24 -23 -20 -44 9 -44 30 0 55 38 34 51 -19 12 -25 11
-43 -7z"/>
<path d="M875 1753 c-78 -17 -143 -46 -148 -64 -8 -30 15 -33 78 -10 65 24
219 43 317 39 67 -3 97 9 84 31 -7 11 -286 14 -331 4z"/>
<path d="M1258 1742 c-10 -11 -8 -17 7 -28 27 -20 59 -14 63 12 2 17 -3 22
-28 26 -19 3 -35 -1 -42 -10z"/>
<path d="M522 1673 c-63 -61 -115 -130 -153 -205 -28 -55 -32 -98 -9 -98 13 0
40 30 40 43 0 25 99 164 153 217 31 30 57 63 57 72 0 32 -37 19 -88 -29z"/>
<path d="M1423 1703 c-25 -9 -12 -38 25 -60 91 -52 180 -146 229 -243 15 -30
35 -55 43 -55 24 0 23 40 -2 86 -13 23 -29 53 -37 68 -39 72 -222 217 -258
204z"/>
<path d="M1017 1652 c-43 -3 -48 -6 -45 -25 3 -21 7 -22 73 -19 103 5 270 -15
322 -38 44 -19 83 -26 83 -14 0 18 -25 46 -53 57 -71 30 -257 49 -380 39z"/>
<path d="M612 1628 c-16 -16 -16 -58 1 -58 22 1 49 28 45 47 -4 22 -29 28 -46
11z"/>
<path d="M828 1629 c-22 -12 -23 -35 -3 -43 25 -9 67 12 63 32 -4 20 -36 26
-60 11z"/>
<path d="M312 1574 c-12 -21 -4 -54 12 -54 19 0 36 22 36 47 0 28 -34 32 -48
7z"/>
<path d="M660 1533 c-73 -69 -111 -127 -139 -210 -28 -83 -28 -133 -1 -133 13
0 22 9 26 28 30 137 93 246 175 301 54 38 66 71 25 71 -16 0 -46 -20 -86 -57z"/>
<path d="M2446 1580 c-41 -13 -83 -57 -102 -106 -21 -56 -16 -214 9 -261 28
-53 72 -77 149 -81 55 -4 73 0 101 17 34 21 35 21 40 1 3 -12 14 -20 26 -20
20 0 21 5 21 120 l0 120 -100 0 -100 0 0 -30 0 -30 65 0 c72 0 76 -4 51 -65
-28 -66 -138 -67 -181 -1 -22 33 -30 130 -16 183 17 63 39 84 94 90 58 7 91
-12 107 -62 10 -31 15 -35 47 -35 36 0 36 0 30 37 -7 41 -30 77 -69 106 -29
22 -127 32 -172 17z"/>
<path d="M2904 1571 c-69 -32 -104 -102 -104 -211 1 -107 25 -163 90 -207 26
-18 47 -23 100 -23 73 0 114 19 152 71 52 69 49 247 -4 322 -27 38 -91 67
-148 67 -25 0 -63 -9 -86 -19z m162 -85 c34 -34 34 -35 34 -122 0 -109 -18
-147 -79 -165 -34 -10 -44 -9 -77 7 -53 26 -64 53 -64 158 0 87 0 88 34 122
28 28 42 34 76 34 34 0 48 -6 76 -34z"/>
<path d="M5364 1571 c-53 -24 -83 -67 -96 -139 -22 -120 6 -225 75 -276 34
-25 143 -34 187 -16 41 17 87 71 99 117 26 91 4 238 -41 281 -56 52 -151 66
-224 33z m145 -65 c15 -8 32 -26 39 -41 18 -39 15 -180 -4 -216 -35 -68 -144
-72 -185 -6 -17 27 -19 46 -17 125 3 92 4 94 36 123 37 33 85 38 131 15z"/>
<path d="M3300 1355 l0 -225 156 0 156 0 -6 23 c-3 12 -6 28 -6 35 0 9 -29 12
-110 12 l-110 0 0 65 0 65 95 0 95 0 0 35 0 35 -95 0 -95 0 0 60 0 60 110 0
110 0 0 30 0 30 -150 0 -150 0 0 -225z"/>
<path d="M3720 1354 l0 -226 113 3 c103 4 117 7 154 31 51 34 75 85 81 173 5
84 -9 143 -45 186 -41 48 -78 59 -198 59 l-105 0 0 -226z m229 138 c34 -25 54
-99 45 -171 -5 -44 -12 -61 -39 -88 -30 -30 -38 -33 -94 -33 l-61 0 0 161 0
162 62 -6 c37 -3 71 -13 87 -25z"/>
<path d="M4200 1355 l0 -225 150 0 c158 0 157 -1 144 48 -6 21 -11 22 -115 22
l-109 0 0 65 0 65 100 0 100 0 0 35 0 35 -100 0 -100 0 0 60 0 60 110 0 110 0
0 30 0 30 -145 0 -145 0 0 -225z"/>
<path d="M4810 1354 l0 -227 114 5 c100 4 119 7 150 28 19 14 44 40 55 60 44
79 35 240 -17 301 -40 48 -78 59 -197 59 l-105 0 0 -226z m193 155 c61 -17 79
-55 75 -161 -3 -80 -5 -90 -30 -115 -24 -23 -38 -28 -98 -31 l-70 -4 0 161 0
161 43 0 c23 0 59 -5 80 -11z"/>
<path d="M5770 1355 l0 -225 151 0 151 0 -6 23 c-3 12 -6 28 -6 35 0 9 -29 12
-110 12 l-110 0 0 65 0 65 95 0 95 0 0 35 0 35 -95 0 -95 0 0 60 0 60 110 0
110 0 0 30 0 30 -145 0 -145 0 0 -225z"/>
<path d="M6180 1355 l0 -225 146 0 146 0 -6 23 c-3 12 -6 28 -6 35 0 9 -27 12
-100 12 l-100 0 0 190 0 190 -40 0 -40 0 0 -225z"/>
<path d="M6570 1355 l0 -225 150 0 c141 0 150 1 150 19 0 49 -6 51 -121 51
l-109 0 0 65 0 65 100 0 100 0 0 35 0 35 -100 0 -100 0 0 60 0 60 109 0 109 0
4 30 5 30 -149 0 -148 0 0 -225z"/>
<path d="M6990 1355 l0 -225 30 0 29 0 3 157 3 156 104 -156 c94 -142 107
-157 132 -157 l29 0 0 225 0 225 -30 0 -29 0 -3 -152 -3 -151 -100 151 c-95
144 -102 152 -132 152 l-33 0 0 -225z"/>
<path d="M508 1513 c-81 -121 -111 -212 -112 -333 -1 -79 1 -85 19 -85 18 0
21 9 26 82 5 70 50 236 69 253 23 22 60 83 60 99 0 34 -35 25 -62 -16z"/>
<path d="M1843 1533 c-7 -19 9 -47 29 -51 18 -3 30 21 22 42 -8 21 -44 27 -51
9z"/>
<path d="M867 1530 c-51 -13 -117 -48 -124 -65 -3 -8 -3 -22 1 -30 5 -13 15
-11 64 14 86 43 117 46 208 21 76 -21 80 -22 131 -6 39 13 53 22 53 36 0 28
-13 31 -64 14 -41 -14 -50 -14 -93 0 -64 21 -130 27 -176 16z"/>
<path d="M1730 1517 c0 -30 26 -55 41 -40 18 18 6 58 -18 61 -19 3 -23 -1 -23
-21z"/>
<path d="M1250 1511 c0 -23 30 -35 61 -26 34 11 19 40 -24 43 -31 3 -37 0 -37
-17z"/>
<path d="M1480 1517 c0 -17 31 -47 49 -47 8 0 11 11 9 28 -2 21 -9 28 -30 30
-19 2 -28 -1 -28 -11z"/>
<path d="M255 1461 c-41 -80 -75 -225 -75 -324 0 -65 1 -68 23 -65 20 3 22 10
28 88 7 92 28 182 60 256 11 26 18 53 15 61 -9 22 -35 14 -51 -16z"/>
<path d="M1400 1454 c0 -9 18 -37 41 -61 76 -83 105 -192 75 -286 -16 -53 -12
-77 11 -77 24 0 45 69 46 155 1 68 -3 89 -26 140 -44 95 -147 185 -147 129z"/>
<path d="M1794 1405 c-3 -8 1 -36 10 -62 28 -87 37 -147 37 -245 0 -99 7 -120
36 -97 13 11 14 33 10 139 -6 160 -40 279 -80 280 -4 0 -10 -7 -13 -15z"/>
<path d="M1903 1404 c-3 -9 1 -39 10 -68 24 -75 37 -170 37 -263 0 -85 9 -105
37 -82 32 27 -2 341 -43 407 -17 26 -32 28 -41 6z"/>
<path d="M860 1394 c-123 -53 -170 -198 -106 -329 50 -100 236 -269 320 -291
61 -15 281 180 344 306 38 74 42 142 13 206 -54 119 -230 164 -318 82 l-23
-21 -22 21 c-47 44 -140 55 -208 26z"/>
<path d="M1580 1398 c0 -7 11 -44 25 -83 32 -92 34 -206 5 -284 -26 -66 -18
-105 16 -83 11 7 45 95 42 110 0 4 2 15 7 25 4 10 5 59 3 110 -6 113 -39 210
-76 215 -13 2 -22 -2 -22 -10z"/>
<path d="M658 1369 c-21 -12 -25 -69 -5 -69 21 0 37 22 37 52 0 30 -5 33 -32
17z"/>
<path d="M307 1303 c-4 -3 -7 -19 -7 -35 0 -25 4 -29 23 -26 17 2 23 11 25 36
3 26 0 32 -16 32 -10 0 -22 -3 -25 -7z"/>
<path d="M1727 1292 c-9 -14 6 -64 20 -69 23 -9 36 12 28 46 -6 29 -36 44 -48
23z"/>
<path d="M604 1235 c-14 -55 7 -173 42 -245 40 -79 117 -170 145 -170 31 0 22
26 -29 90 -79 97 -105 160 -110 263 -4 77 -7 87 -23 87 -12 0 -21 -10 -25 -25z"/>
<path d="M289 1183 c-32 -84 33 -403 82 -403 23 0 24 22 4 81 -27 75 -37 130
-44 238 -6 109 -21 139 -42 84z"/>
<path d="M1740 1118 c-1 -89 -65 -263 -127 -347 -37 -49 -41 -69 -17 -78 19
-7 70 47 80 85 3 12 10 22 14 22 10 0 55 103 74 170 8 30 17 80 18 110 3 50 1
55 -19 58 -18 3 -23 -2 -23 -20z"/>
<path d="M507 1104 c-21 -21 1 -74 31 -74 20 0 12 74 -8 78 -9 1 -19 0 -23 -4z"/>
<path d="M414 1006 c-11 -29 1 -61 24 -64 17 -3 22 2 22 18 0 45 -34 78 -46
46z"/>
<path d="M186 991 c-10 -15 12 -61 28 -61 21 0 28 15 20 45 -6 25 -37 35 -48
16z"/>
<path d="M546 983 c-16 -17 13 -99 43 -123 3 -3 12 -17 20 -32 34 -67 225
-229 250 -213 24 14 9 43 -38 74 -68 43 -177 164 -212 232 -26 53 -49 75 -63
62z"/>
<path d="M1456 974 c-18 -18 -19 -23 -6 -44 14 -22 44 0 48 34 4 30 -17 35
-42 10z"/>
<path d="M1826 944 c-10 -26 -7 -52 8 -57 20 -8 36 13 36 45 0 21 -5 28 -19
28 -10 0 -22 -7 -25 -16z"/>
<path d="M1936 935 c-9 -25 -7 -53 4 -60 18 -11 41 17 38 44 -3 29 -32 40 -42
16z"/>
<path d="M1542 888 c-15 -15 -16 -45 -1 -53 14 -9 49 24 49 47 0 21 -29 25
-48 6z"/>
<path d="M214 843 c8 -57 89 -229 141 -295 35 -47 75 -64 75 -33 0 8 -21 45
-46 81 -56 83 -85 140 -113 227 -18 54 -27 67 -43 67 -19 0 -20 -4 -14 -47z"/>
<path d="M450 876 c0 -21 42 -106 52 -106 4 0 8 -6 8 -14 0 -19 131 -157 191
-202 28 -20 56 -33 64 -30 29 11 14 41 -34 74 -76 51 -168 155 -213 237 -27
50 -68 75 -68 41z"/>
<path d="M2350 655 l0 -225 35 0 35 0 0 95 0 95 95 0 95 0 0 -95 0 -95 40 0
40 0 0 225 0 225 -40 0 -40 0 0 -95 0 -95 -95 0 -95 0 0 95 0 95 -35 0 -35 0
0 -225z"/>
<path d="M2830 655 l0 -225 153 0 153 0 -4 35 -4 35 -109 0 -109 0 0 60 0 60
95 0 95 0 0 35 0 35 -95 0 -95 0 0 60 0 60 104 0 c110 0 116 3 116 51 0 18 -9
19 -150 19 l-150 0 0 -225z"/>
<path d="M3250 655 l0 -225 146 0 c129 0 145 2 140 16 -3 9 -6 24 -6 35 0 17
-8 19 -100 19 l-100 0 0 190 0 190 -40 0 -40 0 0 -225z"/>
<path d="M3640 655 l0 -225 35 0 35 0 0 90 0 90 76 0 c126 0 178 40 178 135 0
104 -49 135 -213 135 l-111 0 0 -225z m230 135 c11 -11 20 -31 20 -45 0 -46
-32 -65 -110 -65 l-70 0 0 65 0 65 70 0 c57 0 74 -4 90 -20z"/>
<path d="M4070 655 l0 -225 156 0 156 0 -6 23 c-3 12 -6 28 -6 35 0 9 -29 12
-110 12 l-110 0 0 60 0 60 95 0 95 0 0 35 0 35 -95 0 -95 0 0 60 0 60 110 0
110 0 0 35 0 35 -150 0 -150 0 0 -225z"/>
<path d="M4490 655 l0 -225 35 0 34 0 3 152 3 151 100 -151 c95 -144 102 -152
133 -152 l32 0 0 225 0 225 -35 0 -34 0 -3 -146 -3 -146 -99 146 c-94 140
-100 146 -132 146 l-34 0 0 -225z"/>
<path d="M1305 809 c-33 -27 -92 -66 -132 -85 l-71 -36 -52 15 c-49 14 -80 14
-80 -2 1 -49 129 -68 215 -31 90 38 215 138 215 171 0 32 -32 21 -95 -32z"/>
<path d="M1794 822 c-6 -4 -22 -27 -34 -52 -35 -69 -78 -129 -147 -202 -35
-37 -63 -71 -63 -77 0 -5 8 -12 17 -15 13 -5 38 15 98 76 90 94 171 224 160
257 -7 22 -13 25 -31 13z"/>
<path d="M1903 798 c-6 -7 -22 -39 -36 -70 -30 -66 -97 -168 -144 -218 -37
-39 -43 -70 -14 -70 51 0 231 269 231 344 0 28 -21 35 -37 14z"/>
<path d="M867 774 c-7 -8 3 -37 17 -46 20 -14 46 -8 46 10 0 31 -43 56 -63 36z"/>
<path d="M1400 730 c-71 -64 -195 -129 -260 -137 -55 -6 -87 -24 -76 -41 11
-18 80 -14 151 9 109 35 275 157 275 201 0 31 -33 19 -90 -32z"/>
<path d="M400 706 c0 -27 12 -46 30 -46 22 0 34 28 19 46 -15 18 -49 18 -49 0z"/>
<path d="M1507 653 c-11 -10 -8 -53 4 -53 23 0 49 22 49 40 0 14 -7 20 -23 20
-13 0 -27 -3 -30 -7z"/>
<path d="M470 607 c0 -33 109 -133 213 -197 87 -53 127 -63 127 -31 0 13 -22
31 -72 59 -79 44 -159 107 -203 160 -32 39 -65 43 -65 9z"/>
<path d="M946 601 c-17 -26 24 -58 58 -45 24 9 19 33 -10 44 -32 12 -41 12
-48 1z"/>
<path d="M1339 535 c-110 -56 -198 -72 -339 -62 -35 3 -42 -38 -8 -47 42 -11
162 -6 228 10 132 31 255 109 203 128 -18 7 -6 11 -84 -29z"/>
<path d="M856 501 c-10 -15 4 -39 26 -45 27 -6 38 0 38 24 0 25 -51 42 -64 21z"/>
<path d="M1469 449 c-14 -26 1 -44 29 -35 22 7 36 32 26 47 -10 17 -43 9 -55
-12z"/>
<path d="M470 436 c0 -23 16 -36 46 -36 17 0 19 31 2 48 -21 21 -48 14 -48
-12z"/>
<path d="M1617 413 c-12 -12 -7 -53 6 -53 16 0 47 32 47 48 0 13 -42 17 -53 5z"/>
<path d="M1301 379 c-62 -22 -194 -40 -266 -36 -44 2 -50 0 -50 -18 0 -19 7
-20 125 -20 102 0 139 4 200 23 68 21 100 42 100 64 0 14 -52 8 -109 -13z"/>
<path d="M557 384 c-8 -8 4 -37 22 -51 40 -32 204 -105 276 -123 70 -18 81
-19 94 -5 21 21 8 31 -69 50 -77 19 -188 68 -247 107 -41 27 -64 34 -76 22z"/>
<path d="M877 363 c-15 -14 -6 -34 20 -44 21 -8 30 -6 42 6 15 15 14 17 -3 31
-21 15 -48 18 -59 7z"/>
<path d="M1480 324 c-63 -33 -214 -80 -282 -88 -57 -7 -78 -25 -54 -45 28 -24
269 37 369 92 37 20 49 50 24 60 -7 2 -33 -6 -57 -19z"/>
<path d="M1024 215 c-9 -23 9 -37 42 -33 21 2 29 8 29 23 0 26 -62 35 -71 10z"/>
</g>
</svg>
