<svg id="Layer_1" data-name="Layer 1" xmlns="http://www.w3.org/2000/svg" xmlns:xlink="http://www.w3.org/1999/xlink" viewBox="0 0 780.12 216.73"><defs><style>.cls-1{fill:#f48120;}.cls-2{fill:url(#linear-gradient);}.cls-3{fill:url(#linear-gradient-2);}.cls-4{fill:url(#linear-gradient-3);}.cls-5{fill:url(#linear-gradient-4);}.cls-6{fill:url(#linear-gradient-5);}.cls-7{fill:url(#linear-gradient-6);}.cls-8{fill:url(#linear-gradient-7);}.cls-9{fill:url(#linear-gradient-8);}.cls-10{fill:url(#linear-gradient-9);}.cls-11{fill:url(#linear-gradient-10);}.cls-12{fill:url(#linear-gradient-11);}.cls-13{fill:url(#linear-gradient-12);}.cls-14{fill:url(#linear-gradient-13);}.cls-15{fill:url(#linear-gradient-14);}.cls-16{fill:url(#linear-gradient-15);}.cls-17{fill:url(#linear-gradient-16);}</style><linearGradient id="linear-gradient" x1="103.18" y1="228.92" x2="246.89" y2="85.21" gradientTransform="translate(-3.68 0.85) rotate(0.62)" gradientUnits="userSpaceOnUse"><stop offset="0.15" stop-color="#ffad4d"/><stop offset="0.45" stop-color="#f3903f"/><stop offset="0.87" stop-color="#e6be7b"/></linearGradient><linearGradient id="linear-gradient-2" x1="30.57" y1="156.3" x2="174.27" y2="12.6" xlink:href="#linear-gradient"/><linearGradient id="linear-gradient-3" x1="82.32" y1="208.06" x2="226.03" y2="64.35" xlink:href="#linear-gradient"/><linearGradient id="linear-gradient-4" x1="59.97" y1="167.38" x2="187.17" y2="40.18" xlink:href="#linear-gradient"/><linearGradient id="linear-gradient-5" x1="62.85" y1="170.26" x2="190.05" y2="43.06" xlink:href="#linear-gradient"/><linearGradient id="linear-gradient-6" x1="85.13" y1="174.24" x2="195.74" y2="63.63" xlink:href="#linear-gradient"/><linearGradient id="linear-gradient-7" x1="46.26" y1="135.37" x2="156.87" y2="24.76" xlink:href="#linear-gradient"/><linearGradient id="linear-gradient-8" x1="28.99" y1="118.1" x2="139.6" y2="7.49" xlink:href="#linear-gradient"/><linearGradient id="linear-gradient-9" x1="20.08" y1="109.2" x2="130.69" y2="-1.41" xlink:href="#linear-gradient"/><linearGradient id="linear-gradient-10" x1="71.92" y1="143.6" x2="165.94" y2="49.59" xlink:href="#linear-gradient"/><linearGradient id="linear-gradient-11" x1="86.77" y1="158.45" x2="180.78" y2="64.44" xlink:href="#linear-gradient"/><linearGradient id="linear-gradient-12" x1="86.85" y1="141.72" x2="164.3" y2="64.26" xlink:href="#linear-gradient"/><linearGradient id="linear-gradient-13" x1="116.05" y1="170.92" x2="193.5" y2="93.46" xlink:href="#linear-gradient"/><linearGradient id="linear-gradient-14" x1="60.67" y1="115.54" x2="138.13" y2="38.09" xlink:href="#linear-gradient"/><linearGradient id="linear-gradient-15" x1="85.21" y1="140.08" x2="162.67" y2="62.63" xlink:href="#linear-gradient"/><linearGradient id="linear-gradient-16" x1="93.88" y1="132.32" x2="154.93" y2="71.28" xlink:href="#linear-gradient"/></defs><title>Artboard 3 copy 3</title><path class="cls-1" d="M291.71,99.35a67.63,67.63,0,0,0,.38,8.2h-3.71a39.6,39.6,0,0,1-1.28-5.25q-4.11,5.9-12.24,5.89t-12.94-4.87q-5.12-5.19-5.12-14.86V82.7q0-9.61,5.12-14.86Q266.74,63,274.86,63q7.31,0,11.85,4,5,4.43,5,12.11h-6.28q0-5.25-3.07-8c-1.8-1.58-4.29-2.37-7.5-2.37q-8.44,0-10.89,7.62a20.33,20.33,0,0,0-.89,6.41v5.76q0,10.64,7,13.2a13.44,13.44,0,0,0,4.8.83c3.67,0,6.38-.92,8.1-2.75s2.6-4.81,2.6-8.91V90H273.13V84.36h18.58Z"/><path class="cls-1" d="M340.45,88.46q0,9.62-5.32,14.86a19.45,19.45,0,0,1-25.75,0q-5.31-5.25-5.31-14.86V82.7q0-9.61,5.31-14.86a19.45,19.45,0,0,1,25.75,0q5.33,5.25,5.32,14.86Zm-6.28-5.76q0-10.64-7.11-13.2a13.75,13.75,0,0,0-4.8-.83,14,14,0,0,0-4.81.8,9.5,9.5,0,0,0-3.71,2.47q-3.39,3.59-3.39,10.76v5.76q0,10.64,7.1,13.2a13.53,13.53,0,0,0,4.81.83,14,14,0,0,0,4.77-.8,9.28,9.28,0,0,0,3.75-2.47q3.39-3.59,3.39-10.76Z"/><path class="cls-1" d="M354.22,107.55V63.61H383l-.83,5.7H360.5V82.25h19.66V88H360.5v13.9h22.1l.89,5.7Z"/><path class="cls-1" d="M396.17,107.55V63.61h15.25q7.93,0,12.81,4.87,5.38,5.25,5.38,14.86v4.48q0,9.62-5.38,14.86-4.87,4.88-12.81,4.87Zm15.25-5.7q8.46,0,11-7.62a20.23,20.23,0,0,0,.89-6.41V83.34q0-10.64-7.17-13.2a13.26,13.26,0,0,0-4.74-.83h-9v32.54Z"/><path class="cls-1" d="M443.38,107.55V63.61H472.2l-.83,5.7H449.66V82.25h19.66V88H449.66v13.9h22.09l.9,5.7Z"/><path class="cls-1" d="M504.93,107.55V63.61h15.25q7.94,0,12.81,4.87,5.37,5.25,5.38,14.86v4.48q0,9.62-5.38,14.86-4.87,4.88-12.81,4.87Zm15.25-5.7q8.45,0,11-7.62a19.93,19.93,0,0,0,.9-6.41V83.34q0-10.64-7.17-13.2a13.34,13.34,0,0,0-4.74-.83h-9v32.54Z"/><path class="cls-1" d="M586.54,88.46q0,9.62-5.32,14.86-5,4.88-12.88,4.87a17.65,17.65,0,0,1-12.87-4.87q-5.33-5.25-5.32-14.86V82.7q0-9.61,5.32-14.86A17.65,17.65,0,0,1,568.34,63q7.89,0,12.88,4.87,5.31,5.25,5.32,14.86Zm-6.28-5.76q0-10.64-7.11-13.2a14.57,14.57,0,0,0-9.61,0,9.42,9.42,0,0,0-3.71,2.47q-3.41,3.59-3.4,10.76v5.76q0,10.64,7.11,13.2a13.44,13.44,0,0,0,4.8.83,14.06,14.06,0,0,0,4.78-.8,9.18,9.18,0,0,0,3.74-2.47q3.4-3.59,3.4-10.76Z"/><path class="cls-1" d="M600.3,107.55V63.61h28.83l-.83,5.7H606.58V82.25h19.67V88H606.58v13.9h22.1l.9,5.7Z"/><path class="cls-1" d="M642.26,107.55V63.61h6.28v38.24h20.17l.9,5.7Z"/><path class="cls-1" d="M680.56,107.55V63.61h28.83l-.84,5.7H686.84V82.25H706.5V88H686.84v13.9h22.1l.89,5.7Z"/><path class="cls-1" d="M749.87,107.55,728.41,75.4l-.19.06v32.09h-5.7V63.61H728l21.27,31.77.19-.06V63.61h5.7v43.94Z"/><path class="cls-1" d="M285.05,178v-19.6H265V178h-6.28V134.07H265v18.64h20.05V134.07h6.27V178Z"/><path class="cls-1" d="M307.08,178V134.07H335.9l-.83,5.7H313.36v12.94H333v5.7H313.36v13.9h22.09l.9,5.7Z"/><path class="cls-1" d="M349,178V134.07h6.28v38.24h20.18l.89,5.7Z"/><path class="cls-1" d="M393.61,159.69V178h-6.27V134.07h19a13.07,13.07,0,0,1,9.28,3.46,13.28,13.28,0,0,1,0,18.7,13.07,13.07,0,0,1-9.28,3.46Zm0-19.92V154h12.11a7.4,7.4,0,0,0,5.25-2.12,6.59,6.59,0,0,0,2.18-5,6.71,6.71,0,0,0-2.11-5,7.5,7.5,0,0,0-5.32-2.11Z"/><path class="cls-1" d="M431.28,178V134.07H460.1l-.83,5.7H437.55v12.94h19.67v5.7H437.55v13.9h22.1l.9,5.7Z"/><path class="cls-1" d="M500.58,178l-21.46-32.16-.19.07V178h-5.7V134.07h5.51L500,165.84l.2-.07v-31.7h5.7V178Z"/><path class="cls-2" d="M216.4,78.2h-5.75a96.2,96.2,0,0,1-88.49,126.33l-.39,5.48A101.68,101.68,0,0,0,216.4,78.2Z"/><path class="cls-3" d="M23.13,107.34A96.19,96.19,0,0,1,208.25,71.75h5.9A101.24,101.24,0,0,0,199.53,46l-.48.22-1-2A101.62,101.62,0,1,0,53.19,185.54l3.76-4A96,96,0,0,1,23.13,107.34Z"/><path class="cls-4" d="M62,185.59l-3.78,4A101.16,101.16,0,0,0,115.31,210l.39-5.46A95.65,95.65,0,0,1,62,185.59Z"/><path class="cls-5" d="M118.39,193.12c-20.92-.23-42.26-9.92-58.57-26.6-16.54-16.93-25.9-39.21-25.66-61.13.34-30.68,17.62-58.45,44.16-71.23l-3-4.61C47.25,43.36,29,72.83,28.69,105.33c-.26,23.36,9.66,47.06,27.22,65,17.31,17.71,40.06,28,62.42,28.26,16.55.18,33.38-5.07,48.12-14.73l-3.46-4.3C149.26,188.46,133.69,193.29,118.39,193.12Z"/><path class="cls-6" d="M162.9,29.44c-15.45-7.42-30.22-8.56-42.63-8.69-10.77-.12-24.69.53-39,6.16l3.08,4.68c13.08-4.9,25.89-5.48,35.87-5.37,11.81.13,25.84,1.2,40.33,8.15,27.26,13.09,44.52,41.68,44,72.85-.41,22.58-10,44.19-27.12,60.87a92.73,92.73,0,0,1-9.1,7.79l3.44,4.27a99.68,99.68,0,0,0,9.49-8.15c18.11-17.68,28.33-40.65,28.77-64.68C210.57,74,192.09,43.44,162.9,29.44Z"/><path class="cls-7" d="M154.46,44.22A59.7,59.7,0,0,1,183.08,67.8a65.08,65.08,0,0,1,10.45,37.31c-.54,19.17-9.77,38.87-25.34,54-14.74,14.35-33.31,22.81-49.68,22.64s-34.75-9.26-49.43-24.3l-.31-.33-3.76,4,.15.15c15.67,16.06,35.6,25.76,53.29,25.95s37.81-8.85,53.56-24.19c16.58-16.15,26.41-37.21,27-57.8a70.63,70.63,0,0,0-11.32-40.44,65.2,65.2,0,0,0-31.25-25.71,61.77,61.77,0,0,0-12.71-3.41L141.82,41A56.61,56.61,0,0,1,154.46,44.22Z"/><path class="cls-8" d="M45.19,103.54c0-1.47.09-2.92.19-4.37l-5.48-.06c-.1,1.45-.17,2.9-.19,4.37-.19,18,7.39,37,21,52.88l3.77-4C52,137.57,45,120.1,45.19,103.54Z"/><path class="cls-9" d="M66.28,48.08l4,3.79a57.88,57.88,0,0,1,15.24-8.39A61.57,61.57,0,0,1,108.33,40c2,0,4.06.09,6.06.16s3.8.13,5.66.15,3.78,0,5.77,0c3.06-.05,6.16-.09,9.36,0L137.12,35c-4-.26-7.8-.21-11.38-.16-3.86.06-7.28,0-11.16-.11-9-.31-19.14-.67-30.9,3.62A63,63,0,0,0,66.28,48.08Z"/><path class="cls-10" d="M65.38,56.08l-4-3.75A71.41,71.41,0,0,0,40.62,92.67l5.55.06A65.73,65.73,0,0,1,65.38,56.08Z"/><path class="cls-11" d="M50.73,102.49c-.18,16.56,8.45,35,23.67,50.63,14.08,14.44,31,23.5,44.16,23.64h.23l-.34-5.48c-11.57-.21-27.3-8.81-40.13-22C64.1,134.71,56,117.67,56.2,102.55c.25-23.07,14.71-42.9,35.16-48.24A38.52,38.52,0,0,1,101.61,53a58.8,58.8,0,0,1,10.47,1.25l-.35-5.63C106,47.62,99,46.66,90,49,67.15,55,51,77,50.73,102.49Z"/><path class="cls-12" d="M119.88,55.32a41.9,41.9,0,0,0,7.49-.84c5.67-1,12.1-2.06,21,.45,20.62,5.78,35,26.35,34.1,48.91C181.87,120,173.29,137.15,159,151c-10.82,10.51-23.35,17.63-34.11,19.65l.34,5.48c12-2.09,25.83-9.79,37.58-21.2,15.31-14.86,24.5-33.41,25.2-50.91,1-25.07-15.06-47.95-38.1-54.4-10.13-2.84-17.51-1.59-23.44-.58a38.59,38.59,0,0,1-6.51.77c-.54,0-1.1-.05-1.69-.11l.35,5.51C119,55.28,119.46,55.32,119.88,55.32Z"/><path class="cls-13" d="M124.94,69.19a25.82,25.82,0,0,1,17.49-3C155.49,68.31,166,78.07,169.9,90.46l5.71.06C171.52,75.41,159,63.33,143.29,60.83A31.25,31.25,0,0,0,123,64l-.06,6.1C123.59,69.86,124.25,69.53,124.94,69.19Z"/><path class="cls-14" d="M171.52,103.19c-.76,13-8.69,27.74-21.76,40.38-2,2-4.14,3.82-6.28,5.55l3.84,3.93c2.12-1.73,4.21-3.58,6.25-5.55,8.25-8,22.27-24.31,23.41-44a41.59,41.59,0,0,0-.17-6.52l-5.51-.06A36.29,36.29,0,0,1,171.52,103.19Z"/><path class="cls-15" d="M114.38,69.08c.76.38,1.46.73,2.13,1l.07-6a32.62,32.62,0,0,0-15.33-4l3.21,5.69A29.51,29.51,0,0,1,114.38,69.08Z"/><path class="cls-16" d="M142.17,157l-3.9-4c-7.51,5.21-14.8,8.46-19.55,8.41-6-.06-18.68-6.84-31.16-19.68C74.5,128.32,67.08,113.9,67.21,102.18c.2-18.43,13-34.09,29.88-36.43h0l-2.85-5.07A39.09,39.09,0,0,0,71.63,74.44a44.55,44.55,0,0,0-9.9,27.68c-.14,13.16,7.84,29,21.9,43.44,12.33,12.67,26.4,21.24,35,21.34C124.76,167,133.4,163.21,142.17,157Z"/><path class="cls-17" d="M166,103.34a27.62,27.62,0,0,0-7.25-21.08,30.45,30.45,0,0,0-22.12-9.84,20.65,20.65,0,0,0-17.45,8.47,19.15,19.15,0,0,0-16.35-8.84C87.41,71.88,75,83.1,73,98.21l5.52.06a24.17,24.17,0,0,1,24.19-20.75c10.85.12,13.48,9.78,13.58,10.18l2.38,9.6,2.89-9.46a15.2,15.2,0,0,1,15-10A24.88,24.88,0,0,1,154.65,86a22.2,22.2,0,0,1,5.85,16.93c-1.12,13.47-12.79,26.63-19.65,33.28-10.36,10-20.09,15.57-22,15.77-2.28-.38-12.43-7.35-22.48-17.8-10.48-10.91-16.87-21.43-18-29.41l-5.54-.07c1.31,12.69,12.9,26.41,20,33.73a129.59,129.59,0,0,0,15,13.28c7.67,5.71,10.1,5.74,10.9,5.74,4.83.06,17-8.77,25.58-17C151.86,133.17,164.68,118.73,166,103.34Z"/></svg>