<svg id="Laag_1" data-name="Laag 1" xmlns="http://www.w3.org/2000/svg" viewBox="0 0 123.34 122.75"><defs><style>.cls-1{fill:#fbcea3;}.cls-2{fill:#ee751d;}</style></defs><title>Tekengebied 22</title><path class="cls-1" d="M34.77,33.25l-2.55,2.67a.6.6,0,0,1-.65.2.66.66,0,0,1-.47-.52.59.59,0,0,1,.18-.53L34.61,31c.06-.07.19-.13.1-.27a.48.48,0,0,0-.48-.1L32.46,31.9q-1.82,1.29-3.61,2.6a.58.58,0,0,1-.83-.08.57.57,0,0,1,.11-.84l4.51-3.9.16-.13c.09-.07.1-.13,0-.23-.37-.52-.25-.47-.81-.17-1.46.8-2.93,1.56-4.4,2.33a.59.59,0,1,1-.61-1l2.22-1.43,2.42-1.55a.48.48,0,0,0,.14-.64c-.06-.12-.15-.05-.22,0l-1.81.65-2.32.83a.58.58,0,0,1-.75-.31.6.6,0,0,1,.3-.77l5.88-3.05,2.07-1.06a3.53,3.53,0,0,1,4.27.88,3.46,3.46,0,0,1,.85,2.27c0,2.1.09,4.21.14,6.31a.82.82,0,0,1-.12.53.57.57,0,0,1-1-.08c-.21-.52-.31-1.08-.48-1.62s-.27-.94-.39-1.41a1,1,0,0,0-.3-.48,9.77,9.77,0,0,1-1-1A2.36,2.36,0,0,1,36.47,27a1.2,1.2,0,0,0,0-.19.33.33,0,0,0-.23-.24c-.13-.05-.13.1-.17.17a2.45,2.45,0,0,0,.43,2.62c.28.28.57.57.86.84.12.11.12.18,0,.3Z"/><path class="cls-1" d="M20.49,49.66,21,45.44c.16-1.38.31-2.77.47-4.15a.71.71,0,0,1,.4-.63.6.6,0,0,1,.69.14.72.72,0,0,1,.17.59l-.27,5.94c0,.11-.07.26.08.31A.44.44,0,0,0,23,47.4L23.62,45c.45-1.6.91-3.21,1.36-4.82.11-.39.42-.6.71-.5a.62.62,0,0,1,.41.82l-1.32,6.6c0,.08,0,.16,0,.23s0,.19.11.23c.6.21.48.24.74-.42.7-1.72,1.44-3.42,2.16-5.13a.57.57,0,0,1,.8-.39.64.64,0,0,1,.27.85c-.3,1-.62,1.88-.93,2.82l-1,3.07a.56.56,0,0,0,.27.67c.12,0,.15-.07.19-.14l1.07-1.84c.45-.78.91-1.56,1.37-2.34a.54.54,0,0,1,.78-.25.71.71,0,0,1,.21.89l-2.91,6.8c-.34.8-.68,1.6-1,2.38a3.51,3.51,0,0,1-3.95,2.19,3.27,3.27,0,0,1-2-1.42c-1.27-1.85-2.56-3.68-3.84-5.52a.94.94,0,0,1-.22-.55c0-.5.47-.86.84-.61s.89.74,1.34,1.1.77.65,1.15,1"/><path class="cls-2" d="M28.24,55.6c0,18.56,14.46,34.82,33.49,34.82,13.26,0,21.69-5.06,21.69-5.06V68.49H69.57a2.18,2.18,0,0,1-2.29-2.16V61.87a2.21,2.21,0,0,1,2.29-2.29H90.41a2.26,2.26,0,0,1,2.17,2.29V89.46a3,3,0,0,1-1,1.93,59.49,59.49,0,0,1-29.76,8,43.2,43.2,0,0,1-43.5-43.26M35.1,21.74a43.37,43.37,0,0,1,26.76-9.15c12.16,0,21,4.21,29.15,11.2a2.33,2.33,0,0,1,.12,3.38c-1.08,1.08-2.41,2.29-3.37,3.37s-1.81,1.09-3.13-.12C78.48,25,69.81,21,61.73,21a32.58,32.58,0,0,0-19.84,6.67M18.36,56.08"/></svg>