<svg id="Laag_1" data-name="Laag 1" xmlns="http://www.w3.org/2000/svg" viewBox="0 0 212.84 179.58"><defs><style>.cls-1{fill:#ee751d;}.cls-2{fill:#fbcea3;}</style></defs><title>Tekengebied 22 kopie</title><path class="cls-1" d="M33.07,135.63c1.6,0,2.64-.92,2.64-3h-3.1v-2.24h6v4.74c0,1.6.12,2.72.12,2.72H37a15.07,15.07,0,0,1-.48-1.54,4.94,4.94,0,0,1-3.87,1.74h-.09c-3.31,0-5.69-2.34-5.69-6.08v-2a5.71,5.71,0,0,1,6-6.08h.28c3,0,5.42,2,5.42,5.08H35.69A2.45,2.45,0,0,0,33,126.43c-1.62,0-2.87,1.08-2.87,3.18v2.84A2.87,2.87,0,0,0,33.07,135.63Z"/><path class="cls-1" d="M47,138.09A5.8,5.8,0,0,1,40.88,132v-2A5.8,5.8,0,0,1,47,124a5.8,5.8,0,0,1,6.12,6.08v2A5.8,5.8,0,0,1,47,138.09Zm0-11.66c-1.65,0-2.89,1.08-2.89,3.18v2.84c0,2.1,1.24,3.18,2.89,3.18s2.88-1.08,2.88-3.18v-2.84C49.89,127.51,48.65,126.43,47,126.43Z"/><path class="cls-1" d="M55.52,124.17h9.67l-.34,2.46H58.56v3h5.87v2.46H58.56v3.34h6.35l.34,2.46H55.52Z"/><path class="cls-1" d="M78.81,130.25v1.56a5.8,5.8,0,0,1-6.13,6.08h-5.2V124.17h5.2A5.8,5.8,0,0,1,78.81,130.25Zm-8.23,5.18h2.1c1.65,0,2.89-1.08,2.89-3.18v-2.44c0-2.1-1.24-3.18-2.89-3.18h-2.1Z"/><path class="cls-1" d="M81.2,124.17h9.67l-.34,2.46H84.24v3h5.87v2.46H84.24v3.34h6.35l.34,2.46H81.2Z"/><path class="cls-1" d="M108.89,130.25v1.56a5.81,5.81,0,0,1-6.13,6.08h-5.2V124.17h5.2A5.81,5.81,0,0,1,108.89,130.25Zm-8.23,5.18h2.1c1.64,0,2.88-1.08,2.88-3.18v-2.44c0-2.1-1.24-3.18-2.88-3.18h-2.1Z"/><path class="cls-1" d="M116.92,138.09A5.8,5.8,0,0,1,110.8,132v-2a6.13,6.13,0,0,1,12.25,0v2A5.81,5.81,0,0,1,116.92,138.09Zm0-11.66c-1.64,0-2.88,1.08-2.88,3.18v2.84c0,2.1,1.24,3.18,2.88,3.18s2.88-1.08,2.88-3.18v-2.84C119.8,127.51,118.56,126.43,116.92,126.43Z"/><path class="cls-1" d="M125.44,124.17h9.66l-.34,2.46h-6.28v3h5.86v2.46h-5.86v3.34h6.34l.35,2.46h-9.73Z"/><path class="cls-1" d="M137.4,124.17h3.1v11.16h5.64l.34,2.56H137.4Z"/><path class="cls-1" d="M148.06,124.17h9.66l-.34,2.46H151.1v3H157v2.46H151.1v3.34h6.34l.34,2.46h-9.72Z"/><path class="cls-1" d="M164,131.57c-.36-.52-1.1-1.78-1.1-1.78l-.08.06v8H160V124.17h2.62l4.32,6.36c.38.56.72,1.18,1.1,1.76l.06-.06v-8.06h2.82v13.72h-2.62Z"/><path class="cls-1" d="M71.05,156.17H66.31v5.72h-3.1V148.17h3.08v5.44h4.76v-5.44h3.09v13.72H71.05Z"/><path class="cls-1" d="M77,148.17H86.7l-.35,2.46H80.07v3h5.86v2.46H80.07v3.34h6.35l.34,2.46H77Z"/><path class="cls-1" d="M89,148.17h3.1v11.16h5.64l.35,2.56H89Z"/><path class="cls-1" d="M102.73,161.89H99.65V148.17h6.62a4.07,4.07,0,0,1,4.15,4.1v.12a4.14,4.14,0,0,1-4.15,4.2h-3.54Zm0-7.72h2.82a1.72,1.72,0,0,0,1.76-1.7v-.12a1.72,1.72,0,0,0-1.76-1.72h-2.82Z"/><path class="cls-1" d="M112.23,148.17h9.66l-.34,2.46h-6.28v3h5.87v2.46h-5.87v3.34h6.34l.35,2.46h-9.73Z"/><path class="cls-1" d="M128.19,155.57c-.36-.52-1.1-1.78-1.1-1.78l-.08.06v8h-2.82V148.17h2.62l4.32,6.36c.38.56.72,1.18,1.1,1.76l.06-.06v-8.06h2.83v13.72h-2.63Z"/><path class="cls-2" d="M72.25,31.83l-3,3.16a.71.71,0,0,1-.77.24.79.79,0,0,1-.56-.62.69.69,0,0,1,.21-.62l4-4.83c.07-.09.23-.16.11-.32a.53.53,0,0,0-.57-.12l-2.09,1.51-4.27,3.08a.68.68,0,0,1-1-.1.67.67,0,0,1,.13-1l5.34-4.61.19-.16a.17.17,0,0,0,0-.28c-.43-.61-.3-.54-1-.19-1.73.94-3.48,1.84-5.22,2.76a.68.68,0,0,1-1-.26.67.67,0,0,1,.28-.92l2.62-1.7L68.56,25a.58.58,0,0,0,.16-.76c-.07-.13-.18-.05-.26,0L66.32,25l-2.74,1a.67.67,0,0,1-.89-.37.7.7,0,0,1,.35-.9l7-3.61c.81-.42,1.61-.85,2.43-1.26a4.17,4.17,0,0,1,5.06,1.05,4.06,4.06,0,0,1,1,2.68c0,2.49.11,5,.16,7.47a.93.93,0,0,1-.13.63.68.68,0,0,1-1.17-.1,18.38,18.38,0,0,1-.57-1.92c-.17-.55-.32-1.11-.47-1.66a1.2,1.2,0,0,0-.35-.58,10.23,10.23,0,0,1-1.14-1.14,2.77,2.77,0,0,1-.58-1.79,1.61,1.61,0,0,0,0-.22A.38.38,0,0,0,74,24c-.15,0-.16.12-.2.21a2.86,2.86,0,0,0,.51,3.09c.33.34.67.67,1,1,.14.13.14.21,0,.35Z"/><path class="cls-2" d="M55.34,51.26c.2-1.66.38-3.33.57-5s.37-3.27.55-4.91a.84.84,0,0,1,.48-.74.69.69,0,0,1,.81.16.8.8,0,0,1,.2.7c-.1,2.34-.21,4.69-.31,7,0,.12-.08.3.1.36a.5.5,0,0,0,.52-.29c.27-.93.53-1.86.79-2.8.54-1.9,1.07-3.81,1.61-5.71.13-.46.49-.7.84-.59a.75.75,0,0,1,.49,1c-.52,2.61-1.05,5.21-1.57,7.82,0,.09,0,.18-.05.27s0,.22.13.27c.72.25.57.28.88-.49.84-2,1.7-4.06,2.55-6.08.2-.47.55-.64.95-.46a.78.78,0,0,1,.33,1c-.36,1.11-.73,2.22-1.1,3.33s-.81,2.42-1.21,3.63a.66.66,0,0,0,.31.8c.14.06.18-.08.23-.16l1.26-2.18,1.62-2.77a.64.64,0,0,1,.93-.29.83.83,0,0,1,.26,1c-1.15,2.69-2.31,5.37-3.46,8.06-.4.94-.8,1.88-1.21,2.81a4.16,4.16,0,0,1-4.67,2.6A3.89,3.89,0,0,1,55.77,58l-4.54-6.53a1.06,1.06,0,0,1-.27-.65c0-.59.56-1,1-.73a19.73,19.73,0,0,1,1.59,1.31c.46.38.91.76,1.36,1.16"/><path class="cls-1" d="M64.52,58.29c0,22,17.12,41.23,39.65,41.23,15.69,0,25.68-6,25.68-6v-20H113.44A2.59,2.59,0,0,1,110.73,71V65.71A2.62,2.62,0,0,1,113.44,63h24.68a2.69,2.69,0,0,1,2.57,2.71V98.38a3.53,3.53,0,0,1-1.14,2.28,70.45,70.45,0,0,1-35.24,9.41,51.14,51.14,0,0,1-51.49-51.2M72.64,18.21A51.3,51.3,0,0,1,104.31,7.37c14.41,0,24.83,5,34.52,13.27a2.75,2.75,0,0,1,.15,4c-1.29,1.28-2.86,2.71-4,4s-2.14,1.29-3.71-.14c-7.27-6.42-17.54-11.12-27.1-11.12a38.52,38.52,0,0,0-23.49,7.89M52.82,58.87"/></svg>