<svg id="Layer_1" data-name="Layer 1" xmlns="http://www.w3.org/2000/svg" xmlns:xlink="http://www.w3.org/1999/xlink" viewBox="0 0 210.7 226.34"><defs><style>.cls-1{fill:url(#linear-gradient);}.cls-2{fill:url(#linear-gradient-2);}.cls-3{fill:url(#linear-gradient-3);}.cls-4{fill:url(#linear-gradient-4);}.cls-5{fill:url(#linear-gradient-5);}.cls-6{fill:url(#linear-gradient-6);}.cls-7{fill:url(#linear-gradient-7);}.cls-8{fill:url(#linear-gradient-8);}.cls-9{fill:url(#linear-gradient-9);}.cls-10{fill:url(#linear-gradient-10);}.cls-11{fill:url(#linear-gradient-11);}.cls-12{fill:url(#linear-gradient-12);}.cls-13{fill:url(#linear-gradient-13);}.cls-14{fill:url(#linear-gradient-14);}.cls-15{fill:url(#linear-gradient-15);}.cls-16{fill:url(#linear-gradient-16);}</style><linearGradient id="linear-gradient" x1="92.43" y1="243.88" x2="236.14" y2="100.17" gradientTransform="translate(-6.91 -5.53) rotate(0.62)" gradientUnits="userSpaceOnUse"><stop offset="0.15" stop-color="#ffad4d"/><stop offset="0.45" stop-color="#f3903f"/><stop offset="0.87" stop-color="#e6be7b"/></linearGradient><linearGradient id="linear-gradient-2" x1="19.82" y1="171.26" x2="163.52" y2="27.56" xlink:href="#linear-gradient"/><linearGradient id="linear-gradient-3" x1="71.57" y1="223.01" x2="215.28" y2="79.31" xlink:href="#linear-gradient"/><linearGradient id="linear-gradient-4" x1="49.22" y1="182.34" x2="176.43" y2="55.14" xlink:href="#linear-gradient"/><linearGradient id="linear-gradient-5" x1="52.1" y1="185.21" x2="179.3" y2="58.01" xlink:href="#linear-gradient"/><linearGradient id="linear-gradient-6" x1="74.38" y1="189.2" x2="184.99" y2="78.58" xlink:href="#linear-gradient"/><linearGradient id="linear-gradient-7" x1="35.51" y1="150.33" x2="146.12" y2="39.72" xlink:href="#linear-gradient"/><linearGradient id="linear-gradient-8" x1="18.24" y1="133.06" x2="128.85" y2="22.45" xlink:href="#linear-gradient"/><linearGradient id="linear-gradient-9" x1="9.34" y1="124.15" x2="119.95" y2="13.54" xlink:href="#linear-gradient"/><linearGradient id="linear-gradient-10" x1="61.18" y1="158.56" x2="155.19" y2="64.55" xlink:href="#linear-gradient"/><linearGradient id="linear-gradient-11" x1="76.02" y1="173.41" x2="170.03" y2="79.4" xlink:href="#linear-gradient"/><linearGradient id="linear-gradient-12" x1="76.1" y1="156.68" x2="153.56" y2="79.22" xlink:href="#linear-gradient"/><linearGradient id="linear-gradient-13" x1="105.3" y1="185.88" x2="182.75" y2="108.42" xlink:href="#linear-gradient"/><linearGradient id="linear-gradient-14" x1="49.93" y1="130.5" x2="127.38" y2="53.05" xlink:href="#linear-gradient"/><linearGradient id="linear-gradient-15" x1="74.46" y1="155.04" x2="151.92" y2="77.58" xlink:href="#linear-gradient"/><linearGradient id="linear-gradient-16" x1="83.14" y1="147.28" x2="144.18" y2="86.24" xlink:href="#linear-gradient"/></defs><title>Artboard 7 copy</title><path class="cls-1" d="M202.25,86.65h-5.74A96.2,96.2,0,0,1,108,213l-.4,5.49A101.66,101.66,0,0,0,202.25,86.65Z"/><path class="cls-2" d="M9,115.79A96.19,96.19,0,0,1,194.11,80.21H200a102.08,102.08,0,0,0-14.62-25.75l-.49.23-1-2A101.62,101.62,0,1,0,39.05,194l3.75-4A96,96,0,0,1,9,115.79Z"/><path class="cls-3" d="M47.86,194l-3.77,4a101.06,101.06,0,0,0,57.08,20.37l.39-5.46A95.68,95.68,0,0,1,47.86,194Z"/><path class="cls-4" d="M104.25,201.58C83.33,201.35,62,191.65,45.68,175,29.13,158.05,19.78,135.76,20,113.84c.33-30.67,17.62-58.45,44.15-71.22l-3-4.61c-28,13.81-46.24,43.28-46.6,75.77-.25,23.36,9.67,47.06,27.22,65,17.31,17.71,40.07,28,62.43,28.25,16.55.18,33.37-5.07,48.12-14.73L148.85,188C135.12,196.91,119.55,201.74,104.25,201.58Z"/><path class="cls-5" d="M148.76,37.89c-15.45-7.41-30.22-8.55-42.63-8.69-10.77-.12-24.7.54-39,6.17l3.08,4.68c13.08-4.91,25.88-5.48,35.87-5.37,11.81.12,25.83,1.19,40.32,8.15,27.27,13.08,44.53,41.68,44,72.85-.41,22.57-10.05,44.19-27.12,60.86a93.91,93.91,0,0,1-9.1,7.79l3.44,4.27a98.23,98.23,0,0,0,9.48-8.14c18.11-17.69,28.33-40.66,28.77-64.68C196.43,82.47,178,51.9,148.76,37.89Z"/><path class="cls-6" d="M140.32,52.68a59.73,59.73,0,0,1,28.62,23.57,65.15,65.15,0,0,1,10.44,37.31c-.53,19.18-9.77,38.87-25.33,54-14.74,14.36-33.31,22.82-49.68,22.64S69.61,181,54.93,165.94l-.3-.33-3.76,4,.15.16c15.67,16.05,35.59,25.75,53.29,26s37.8-8.86,53.56-24.2c16.57-16.14,26.41-37.21,27-57.8a70.52,70.52,0,0,0-11.32-40.43,65,65,0,0,0-31.25-25.71,61.6,61.6,0,0,0-12.71-3.41l-1.89,5.25A56.08,56.08,0,0,1,140.32,52.68Z"/><path class="cls-7" d="M31,112c0-1.46.09-2.92.2-4.37l-5.48-.06c-.1,1.45-.17,2.91-.19,4.37-.2,18,7.39,37,21,52.88l3.77-4C37.83,146,30.86,128.56,31,112Z"/><path class="cls-8" d="M52.13,56.53l4,3.8a57.57,57.57,0,0,1,15.24-8.39,61.54,61.54,0,0,1,22.77-3.46c2,0,4.07.09,6.07.16s3.8.14,5.66.16,3.78,0,5.77,0c3.06,0,6.16-.09,9.36.05L123,43.44c-4-.26-7.8-.21-11.39-.15-3.86.05-7.28,0-11.15-.12-9-.31-19.14-.66-30.91,3.63A63,63,0,0,0,52.13,56.53Z"/><path class="cls-9" d="M51.23,64.54l-4-3.75a71.32,71.32,0,0,0-20.77,40.33l5.54.07A65.76,65.76,0,0,1,51.23,64.54Z"/><path class="cls-10" d="M36.59,110.94C36.4,127.5,45,146,60.26,161.58c14.07,14.44,31,23.5,44.16,23.64h.22l-.34-5.47c-11.57-.21-27.29-8.82-40.12-22C50,143.17,41.89,126.13,42.06,111c.25-23.06,14.71-42.9,35.15-48.23a38.66,38.66,0,0,1,10.25-1.29,59.57,59.57,0,0,1,10.47,1.26l-.35-5.63c-5.71-1-12.71-2-21.75.36C53,63.43,36.86,85.42,36.59,110.94Z"/><path class="cls-11" d="M105.74,63.78a43,43,0,0,0,7.49-.85c5.67-1,12.09-2.06,21,.45,20.63,5.78,35,26.36,34.11,48.92-.65,16.1-9.23,33.3-23.54,47.2C134,170,121.48,177.13,110.72,179.14l.34,5.49c12-2.1,25.84-9.79,37.59-21.21,15.31-14.86,24.49-33.41,25.2-50.91,1-25.06-15.07-47.94-38.1-54.4-10.13-2.84-17.51-1.58-23.44-.57a38.48,38.48,0,0,1-6.51.76,16.7,16.7,0,0,1-1.69-.11l.34,5.52C104.88,63.74,105.32,63.77,105.74,63.78Z"/><path class="cls-12" d="M110.8,77.64a25.9,25.9,0,0,1,17.48-3c13.07,2.08,23.55,11.84,27.47,24.23l5.72.06c-4.1-15.11-16.6-27.2-32.33-29.69a31.18,31.18,0,0,0-20.26,3.19l-.07,6.11C109.45,78.31,110.11,78,110.8,77.64Z"/><path class="cls-13" d="M157.37,111.64c-.75,13-8.68,27.74-21.75,40.38-2,2-4.15,3.83-6.29,5.55l3.85,3.93c2.11-1.73,4.21-3.57,6.24-5.54,8.26-8,22.28-24.32,23.42-44a41.46,41.46,0,0,0-.17-6.51l-5.51-.06A35.21,35.21,0,0,1,157.37,111.64Z"/><path class="cls-14" d="M100.24,77.53c.76.38,1.46.74,2.13,1l.06-6a32.64,32.64,0,0,0-15.32-4.06l3.2,5.69A29.71,29.71,0,0,1,100.24,77.53Z"/><path class="cls-15" d="M128,165.45l-3.89-4c-7.51,5.2-14.81,8.46-19.55,8.41-6-.07-18.68-6.85-31.17-19.68-13.06-13.42-20.47-27.84-20.35-39.57.2-18.42,13-34.08,29.88-36.43h0L80.1,69.14A39.06,39.06,0,0,0,57.49,82.9a44.54,44.54,0,0,0-9.9,27.67c-.14,13.16,7.84,29,21.9,43.45,12.32,12.66,26.4,21.24,35,21.33C110.62,175.42,119.26,171.67,128,165.45Z"/><path class="cls-16" d="M151.81,111.79a27.59,27.59,0,0,0-7.26-21.07,30.38,30.38,0,0,0-22.11-9.85A20.71,20.71,0,0,0,105,89.34,19.15,19.15,0,0,0,88.63,80.5c-15.36-.16-27.77,11-29.76,26.17l5.52.06A24.15,24.15,0,0,1,88.57,86c10.85.11,13.48,9.78,13.59,10.18l2.38,9.59,2.89-9.45a15.2,15.2,0,0,1,14.95-10,25,25,0,0,1,18.13,8.06,22.27,22.27,0,0,1,5.85,16.94c-1.12,13.46-12.79,26.63-19.65,33.28-10.36,10-20.1,15.57-22,15.76-2.27-.38-12.43-7.35-22.47-17.8-10.49-10.9-16.88-21.43-18-29.41l-5.54-.06c1.3,12.68,12.9,26.4,20,33.72a129.82,129.82,0,0,0,15,13.29c7.67,5.7,10.1,5.73,10.9,5.74,4.83,0,17-8.78,25.57-17C137.71,141.63,150.54,127.18,151.81,111.79Z"/></svg>