<?xml version="1.0" standalone="no"?>
<!DOCTYPE svg PUBLIC "-//W3C//DTD SVG 20010904//EN"
 "http://www.w3.org/TR/2001/REC-SVG-20010904/DTD/svg10.dtd">
<svg version="1.0" xmlns="http://www.w3.org/2000/svg"
 width="211.000000pt" height="227.000000pt" viewBox="0 0 211.000000 227.000000"
 preserveAspectRatio="xMidYMid meet">

<g transform="translate(0.000000,227.000000) scale(0.100000,-0.100000)"
fill="#000000" stroke="none">
<path d="M945 2133 c-91 -7 -106 -13 -103 -36 3 -20 7 -22 58 -17 94 9 202 5
283 -9 59 -11 81 -11 90 -2 23 23 -17 41 -129 56 -108 14 -120 15 -199 8z"/>
<path d="M733 2092 c-22 -3 -37 -27 -27 -43 8 -14 38 -11 60 5 17 13 17 16 4
28 -8 8 -25 12 -37 10z"/>
<path d="M1323 2073 c-20 -7 -15 -31 8 -43 25 -14 49 -6 49 14 0 13 -30 38
-42 35 -2 0 -9 -3 -15 -6z"/>
<path d="M547 2004 c-98 -57 -227 -177 -227 -210 0 -36 21 -29 70 22 43 44
182 154 194 154 17 0 86 52 86 65 0 27 -44 16 -123 -31z"/>
<path d="M845 2006 c-103 -22 -143 -36 -149 -53 -6 -15 8 -32 25 -33 4 0 25 7
48 15 67 23 158 36 254 36 91 0 111 7 100 36 -7 17 -192 16 -278 -1z"/>
<path d="M1453 2013 c-28 -10 -10 -40 45 -75 53 -35 159 -134 215 -202 16 -20
29 -27 40 -23 28 11 20 31 -47 109 -85 100 -221 202 -253 191z"/>
<path d="M1167 2003 c-4 -3 -7 -14 -7 -24 0 -17 43 -35 60 -24 19 11 10 43
-12 49 -29 7 -33 7 -41 -1z"/>
<path d="M1304 1964 c-22 -9 -3 -40 31 -53 55 -20 177 -104 229 -159 52 -55
86 -67 86 -32 0 43 -179 190 -284 234 -40 17 -44 17 -62 10z"/>
<path d="M579 1899 c-14 -26 1 -44 29 -35 22 7 36 32 26 47 -10 17 -43 9 -55
-12z"/>
<path d="M835 1889 c-76 -9 -171 -45 -179 -66 -8 -19 13 -35 34 -27 89 37 144
47 288 51 122 5 155 9 159 20 3 8 0 19 -8 23 -16 11 -210 10 -294 -1z"/>
<path d="M1183 1874 c-7 -19 5 -32 32 -34 36 -4 45 0 45 19 0 29 -66 43 -77
15z"/>
<path d="M464 1818 c-67 -63 -128 -146 -165 -221 -31 -62 -32 -68 -17 -83 18
-18 12 -26 87 103 22 40 71 102 107 138 62 63 75 93 47 102 -7 3 -33 -15 -59
-39z"/>
<path d="M1347 1833 c-16 -16 -3 -32 63 -78 39 -26 92 -73 118 -104 26 -31 49
-58 52 -61 4 -3 16 -27 27 -55 15 -34 28 -51 42 -53 39 -6 28 32 -40 148 -31
53 -107 128 -173 171 -59 39 -77 45 -89 32z"/>
<path d="M907 1783 c-4 -3 -7 -14 -7 -23 0 -15 19 -18 158 -23 181 -7 169 -5
245 -36 59 -24 84 -20 72 11 -11 27 -74 49 -195 68 -67 10 -264 13 -273 3z"/>
<path d="M542 1758 c-18 -18 -15 -48 6 -48 23 0 42 19 42 42 0 21 -30 24 -48
6z"/>
<path d="M751 1761 c-26 -16 -4 -43 31 -39 25 2 34 8 36 26 3 18 -1 22 -25 22
-15 0 -34 -4 -42 -9z"/>
<path d="M241 1701 c-7 -13 -6 -23 3 -36 12 -16 13 -16 29 0 9 9 17 25 17 36
0 25 -36 25 -49 0z"/>
<path d="M624 1698 c-46 -35 -93 -86 -126 -137 -53 -84 -88 -241 -54 -241 20
0 32 20 39 64 8 49 56 151 95 199 17 21 51 54 76 73 25 19 46 41 46 49 0 22
-42 18 -76 -7z"/>
<path d="M442 1653 c-77 -112 -122 -245 -122 -360 0 -61 1 -64 23 -61 20 3 23
10 29 83 9 112 43 213 95 284 18 24 33 52 33 62 0 29 -36 23 -58 -8z"/>
<path d="M1662 1647 c2 -25 8 -33 26 -35 20 -3 23 0 20 24 -2 17 -11 30 -26
35 -22 8 -23 6 -20 -24z"/>
<path d="M1773 1664 c-7 -20 8 -48 29 -52 20 -4 31 25 18 49 -13 23 -38 25
-47 3z"/>
<path d="M774 1656 c-66 -21 -104 -48 -104 -73 0 -30 17 -29 73 2 66 37 127
42 213 16 69 -22 71 -22 120 -4 36 14 50 24 52 41 4 26 -9 28 -68 7 -40 -14
-47 -14 -97 5 -61 23 -129 25 -189 6z"/>
<path d="M1187 1663 c-4 -3 -7 -14 -7 -24 0 -23 50 -32 70 -13 13 14 13 17 -4
30 -21 15 -48 18 -59 7z"/>
<path d="M1410 1652 c0 -21 29 -52 48 -52 16 0 15 43 0 58 -19 19 -48 15 -48
-6z"/>
<path d="M208 1622 c-10 -2 -18 -5 -18 -6 0 -2 -11 -34 -25 -72 -34 -94 -55
-200 -55 -279 0 -57 2 -65 19 -65 24 0 31 19 31 80 0 65 24 178 56 256 26 66
23 93 -8 86z"/>
<path d="M1330 1582 c0 -10 16 -34 36 -53 42 -39 81 -115 90 -176 5 -36 -4
-110 -20 -153 -8 -21 8 -42 27 -34 19 7 33 49 41 124 11 95 -28 203 -102 283
-30 31 -72 37 -72 9z"/>
<path d="M1514 1536 c-3 -8 6 -47 20 -86 34 -94 36 -206 4 -292 -15 -42 -18
-62 -10 -70 21 -21 41 2 61 68 35 110 25 259 -22 350 -18 36 -45 51 -53 30z"/>
<path d="M1724 1535 c-3 -8 1 -34 10 -57 28 -75 37 -140 37 -246 0 -101 0
-103 22 -100 21 3 22 8 25 103 3 100 -14 212 -44 283 -14 33 -40 43 -50 17z"/>
<path d="M1833 1523 c3 -15 15 -71 26 -123 13 -58 21 -131 21 -187 0 -85 2
-93 19 -93 10 0 22 7 25 16 17 45 -1 250 -33 352 -13 46 -21 58 -40 60 -21 3
-23 1 -18 -25z"/>
<path d="M781 1523 c-117 -59 -159 -196 -99 -318 51 -103 184 -232 291 -284
44 -21 47 -22 79 -5 102 52 249 199 298 297 22 44 30 74 30 113 0 65 -10 92
-51 138 -45 52 -97 76 -163 76 -63 0 -92 -9 -124 -40 l-24 -22 -29 28 c-26 25
-39 29 -102 32 -53 2 -81 -2 -106 -15z"/>
<path d="M582 1498 c-20 -20 -15 -58 8 -58 23 0 39 26 33 51 -6 22 -23 25 -41
7z"/>
<path d="M236 1435 c-9 -25 -7 -53 4 -60 18 -11 41 17 38 44 -3 29 -32 40 -42
16z"/>
<path d="M1655 1420 c-8 -13 16 -62 32 -68 17 -5 27 22 19 53 -6 25 -39 35
-51 15z"/>
<path d="M533 1374 c-10 -27 6 -160 25 -212 33 -86 130 -212 163 -212 31 0 22
28 -31 95 -76 95 -104 163 -108 263 -4 73 -6 82 -23 82 -11 0 -22 -7 -26 -16z"/>
<path d="M215 1302 c-20 -120 44 -404 88 -389 17 6 13 51 -13 132 -13 44 -23
111 -27 183 -5 98 -8 112 -24 112 -12 0 -19 -11 -24 -38z"/>
<path d="M1676 1268 c-2 -7 -11 -50 -19 -96 -17 -91 -59 -189 -113 -264 -35
-49 -40 -78 -17 -85 34 -12 138 166 169 287 8 31 15 81 17 111 2 44 -1 54 -16
57 -9 2 -19 -2 -21 -10z"/>
<path d="M430 1212 c0 -34 25 -61 41 -45 6 6 9 23 7 39 -2 21 -9 30 -25 32
-19 3 -23 -1 -23 -26z"/>
<path d="M340 1116 c0 -22 6 -36 16 -40 27 -10 34 -7 34 18 0 37 -10 56 -31
56 -15 0 -19 -7 -19 -34z"/>
<path d="M116 1121 c-10 -15 12 -61 28 -61 21 0 28 15 20 45 -6 25 -37 35 -48
16z"/>
<path d="M474 1105 c-6 -15 8 -49 54 -131 40 -72 212 -224 253 -224 39 0 18
36 -52 89 -74 57 -158 154 -200 230 -27 49 -46 61 -55 36z"/>
<path d="M1380 1101 c-5 -11 -7 -27 -4 -35 13 -33 54 -9 54 31 0 29 -35 32
-50 4z"/>
<path d="M1757 1083 c-4 -3 -7 -19 -7 -35 0 -25 4 -29 23 -26 17 2 23 11 25
36 3 26 0 32 -16 32 -10 0 -22 -3 -25 -7z"/>
<path d="M1867 1073 c-4 -3 -7 -19 -7 -35 0 -25 4 -29 23 -26 17 2 23 11 25
36 3 26 0 32 -16 32 -10 0 -22 -3 -25 -7z"/>
<path d="M1476 1025 c-22 -23 -21 -55 3 -55 23 0 44 24 39 46 -4 24 -23 28
-42 9z"/>
<path d="M385 1019 c-27 -43 127 -250 252 -336 28 -19 56 -32 62 -29 20 13 11
43 -16 62 -89 57 -183 160 -234 254 -31 58 -50 73 -64 49z"/>
<path d="M140 996 c0 -86 153 -366 201 -366 30 0 23 34 -19 90 -44 58 -101
170 -126 248 -13 39 -22 52 -37 52 -13 0 -19 -7 -19 -24z"/>
<path d="M1264 969 c-36 -39 -128 -102 -178 -123 -46 -19 -75 -20 -128 -4 -26
7 -42 8 -49 1 -32 -32 52 -68 135 -58 92 11 286 140 286 191 0 34 -30 31 -66
-7z"/>
<path d="M1724 952 c-6 -4 -19 -23 -29 -42 -33 -64 -96 -150 -150 -204 -64
-64 -78 -96 -43 -96 60 0 272 282 252 334 -7 18 -13 19 -30 8z"/>
<path d="M1815 898 c-25 -66 -88 -167 -144 -233 -54 -63 -65 -95 -31 -95 46 0
230 276 230 346 0 42 -35 31 -55 -18z"/>
<path d="M790 902 c0 -18 33 -52 51 -52 24 0 27 45 3 54 -22 8 -54 7 -54 -2z"/>
<path d="M1320 855 c-84 -70 -190 -123 -266 -133 -50 -6 -59 -10 -59 -27 0
-17 7 -20 50 -20 28 1 59 5 70 9 11 5 28 11 38 12 75 15 267 155 267 195 0 32
-32 21 -100 -36z"/>
<path d="M334 845 c-13 -34 29 -73 47 -44 12 19 11 25 -7 43 -19 20 -33 20
-40 1z"/>
<path d="M1442 788 c-16 -16 -15 -58 1 -58 19 0 47 33 47 53 0 20 -30 23 -48
5z"/>
<path d="M400 746 c0 -59 275 -271 326 -252 30 11 14 42 -33 65 -65 31 -157
99 -220 160 -57 57 -73 63 -73 27z"/>
<path d="M870 728 c1 -36 49 -58 71 -32 11 14 11 18 -6 30 -23 17 -65 18 -65
2z"/>
<path d="M1260 664 c-84 -44 -190 -67 -282 -62 -67 3 -73 1 -73 -17 0 -26 49
-36 147 -30 150 11 318 84 318 139 0 15 -51 1 -110 -30z"/>
<path d="M780 628 c0 -21 21 -38 48 -38 19 0 23 5 20 23 -2 17 -11 23 -35 25
-23 2 -33 -1 -33 -10z"/>
<path d="M1400 580 c-21 -38 13 -55 43 -22 24 26 21 42 -8 42 -14 0 -29 -8
-35 -20z"/>
<path d="M402 569 c4 -30 33 -48 50 -31 17 17 -1 46 -31 50 -18 3 -22 -1 -19
-19z"/>
<path d="M1552 548 c-19 -19 -15 -48 7 -48 24 0 45 25 37 45 -7 18 -27 20 -44
3z"/>
<path d="M1252 520 c-78 -28 -156 -41 -252 -43 -78 -2 -85 -4 -85 -22 0 -19 6
-20 125 -19 106 1 137 5 206 28 80 26 109 50 82 68 -16 10 -13 10 -76 -12z"/>
<path d="M480 510 c0 -49 276 -180 379 -180 20 0 40 25 29 36 -3 2 -40 13 -83
25 -87 22 -184 64 -241 103 -39 26 -84 35 -84 16z"/>
<path d="M803 484 c-7 -19 13 -34 45 -34 27 0 41 28 21 41 -23 14 -59 10 -66
-7z"/>
<path d="M1375 445 c-75 -37 -208 -75 -260 -75 -18 0 -38 -7 -45 -15 -53 -64
163 -34 343 47 55 26 67 35 65 52 -4 30 -25 29 -103 -9z"/>
<path d="M953 345 c-8 -21 14 -36 47 -33 17 2 25 9 25 23 0 27 -62 35 -72 10z"/>
</g>
</svg>
