<?xml version="1.0" encoding="UTF-8" standalone="no"?>
<svg width="354px" height="656px" viewBox="0 0 354 656" version="1.1" xmlns="http://www.w3.org/2000/svg" xmlns:xlink="http://www.w3.org/1999/xlink">
    <!-- Generator: Sketch 43.1 (39012) - http://www.bohemiancoding.com/sketch -->
    <title>tweet_voorbeeld</title>
    <desc>Created with Sketch.</desc>
    <defs>
        <rect id="path-1" x="0" y="0" width="332" height="634" rx="34"></rect>
        <filter x="-4.8%" y="-2.2%" width="111.4%" height="106.0%" filterUnits="objectBoundingBox" id="filter-2">
            <feMorphology radius="1" operator="dilate" in="SourceAlpha" result="shadowSpreadOuter1"></feMorphology>
            <feOffset dx="3" dy="5" in="shadowSpreadOuter1" result="shadowOffsetOuter1"></feOffset>
            <feGaussianBlur stdDeviation="4.5" in="shadowOffsetOuter1" result="shadowBlurOuter1"></feGaussianBlur>
            <feColorMatrix values="0 0 0 0 0.701960784   0 0 0 0 0.701960784   0 0 0 0 0.701960784  0 0 0 0.5 0" type="matrix" in="shadowBlurOuter1"></feColorMatrix>
        </filter>
        <polygon id="path-3" points="38.4157969 0.135671642 38.4157969 44.3283582 0.0494124408 44.3283582 0.0494124408 0.135671642"></polygon>
    </defs>
    <g id="Page-1" stroke="none" stroke-width="1" fill="none" fill-rule="evenodd">
        <g id="Artboard-3-Copy" transform="translate(-433.000000, -19.000000)">
            <g id="tweet_voorbeeld" transform="translate(441.000000, 25.000000)">
                <g id="Group-Copy">
                    <g id="iphone-2">
                        <g id="Rectangle">
                            <use fill="black" fill-opacity="1" filter="url(#filter-2)" xlink:href="#path-1"></use>
                            <use fill="#FFFFFF" fill-rule="evenodd" xlink:href="#path-1"></use>
                        </g>
                        <rect id="Rectangle-13" fill="#F4F4F4" x="15.4418605" y="70.6898955" width="303.322259" height="489.30662"></rect>
                        <ellipse id="Oval" fill="#F2F2F2" cx="164.89701" cy="592.580139" rx="24.8172757" ry="24.8519164"></ellipse>
                        <rect id="Rectangle-14" fill="#F1F1F1" x="135.667774" y="35.3449477" width="62.8704319" height="7.73170732" rx="3.86585366"></rect>
                    </g>
                </g>
                <rect id="Rectangle-20" fill="#FFFFFF" x="15" y="71" width="305" height="62"></rect>
                <ellipse id="Oval-4" fill="#E8E8E8" cx="50.5" cy="100" rx="16.5" ry="16"></ellipse>
                <ellipse id="Oval-4-Copy" fill="#FFC883" cx="55" cy="183.5" rx="26" ry="25.5"></ellipse>
                <g id="Page-1" transform="translate(273.000000, 79.000000)">
                    <g id="Group-6">
                        <mask id="mask-4" fill="white">
                            <use xlink:href="#path-3"></use>
                        </mask>
                        <g id="Clip-5"></g>
                        <path d="M24.9525482,12.1686323 C26.4613695,12.7442222 27.6071701,11.5951431 29.1070603,11.7821048 C27.8740507,16.3983778 23.0171381,16.3920757 19.7573065,18.8041965 C21.5960512,19.4680155 22.8400932,18.8982025 24.7471341,18.5678685 C22.8395679,21.7971589 20.1607796,23.0024315 17.3411961,23.5669928 C13.4304489,24.3505513 10.7380014,26.6171991 8.57038413,29.6941892 C6.96279596,31.9771173 5.5291005,34.3813605 3.99033392,36.7131298 C3.33679154,37.7025562 2.7478679,38.7796866 1.63989291,39.3741827 C0.89073581,38.6000773 1.23536909,37.9199779 1.47230447,37.3149783 C6.31923534,24.9303425 13.3159214,14.1905494 24.9178747,7.04766789 C26.3153206,6.18743409 27.9166045,5.64493012 29.4527443,5.02785154 C29.9901831,4.81200533 30.7151738,4.60141085 31.0918538,5.28308574 C31.3744951,5.7946045 30.9373993,6.26253387 30.6663158,6.70945631 C29.7290814,8.25819225 28.1798077,9.13155538 26.8322705,10.2323185 C26.1787281,10.7669449 25.2856236,11.0757468 24.9525482,12.1686323" id="Fill-4" fill="#FFC883" mask="url(#mask-4)"></path>
                    </g>
                </g>
                <rect id="Rectangle-2" fill="#FFC883" x="274.858834" y="90" width="1.26053957" height="7"></rect>
                <text id="Ik-help-WEM-Nederlan" opacity="0.740496735" font-family="Chivo-Bold, Chivo" font-size="15" font-weight="bold" fill="#000000">
                    <tspan x="35" y="219"></tspan>
                    <tspan x="35" y="237">Ik help WEM Nederland, omdat ik </tspan>
                    <tspan x="35" y="255">kinderen in Afrika een beter leven </tspan>
                    <tspan x="35" y="273">wil geven. Dit doe ik door Carwash </tspan>
                    <tspan x="35" y="291">Capelle te organiseren op 9 mei </tspan>
                    <tspan x="35" y="309">2018! Hiervoor heb ik jouw hulp </tspan>
                    <tspan x="35" y="327">nodig! Via onderstaande link kan jij </tspan>
                    <tspan x="35" y="345">helpen mijn doel te bereiken! </tspan>
                    <tspan x="35" y="363">   </tspan>
                </text>
                <text id="Linda-van-Bergen" font-family="Chivo-Bold, Chivo" font-size="10" font-weight="bold" fill="#000000">
                    <tspan x="89" y="182">Linda van Bergen</tspan>
                </text>
                <text id="@linda_van_bergen" font-family="Chivo-Light, Chivo" font-size="10" font-weight="300" fill="#000000">
                    <tspan x="89" y="193">@linda_van_bergen</tspan>
                </text>
                <polyline id="Rectangle-2-Copy" fill="#FFC883" points="279 93.0640441 279 94.194453 272 94.194453 272 93.0640441"></polyline>
                <path d="M33,370.995709 C33,366.027516 37.0251087,362 42.0044039,362 L276.995596,362 C281.968591,362 286,366.024409 286,370.995709 L286,484 L33,484 L33,370.995709 Z" id="Rectangle-21" fill="#F2BC78"></path>
                <path d="M33,484 L286,484 L286,531.002631 C286,535.971741 281.974891,540 276.995596,540 L42.0044039,540 C37.031409,540 33,535.972618 33,531.002631 L33,484 Z" id="Rectangle-3" fill="#FBFBFB"></path>
                <text id="Goede-Doelen-Helpen" font-family="Chivo-Regular, Chivo" font-size="12" font-weight="normal" fill="#000000">
                    <tspan x="38" y="500">Goede Doelen Helpen</tspan>
                </text>
                <text id="Help-mijn-evenement" opacity="0.396571828" font-family="Chivo-Regular, Chivo" font-size="11" font-weight="normal" fill="#000000">
                    <tspan x="39" y="516">Help mijn evenement te steunen via…..</tspan>
                </text>
                <text id="Goededoelenhelpen.nl" opacity="0.396571828" font-family="Chivo-Regular, Chivo" font-size="9" font-weight="normal" fill="#000000">
                    <tspan x="39" y="533">Goededoelenhelpen.nl</tspan>
                </text>
            </g>
        </g>
    </g>
</svg>